<?xml version="1.0" encoding="UTF-8"?>
<!DOCTYPE svg PUBLIC "-//W3C//DTD SVG 1.1//EN" "http://www.w3.org/Graphics/SVG/1.1/DTD/svg11.dtd">
<!-- Creator: CorelDRAW 2017 -->
<svg xmlns="http://www.w3.org/2000/svg" xml:space="preserve" width="512px" height="179px" version="1.1" style="shape-rendering:geometricPrecision; text-rendering:geometricPrecision; image-rendering:optimizeQuality; fill-rule:evenodd; clip-rule:evenodd"
viewBox="0 0 6.12 2.15"
 xmlns:xlink="http://www.w3.org/1999/xlink">
 <defs>
  <style type="text/css">
   <![CDATA[
    .fil0 {fill:black}
    .fil1 {fill:#1E66BD;fill-rule:nonzero}
   ]]>
  </style>
 </defs>
 <g id="Layer_x0020_1">
  <metadata id="CorelCorpID_0Corel-Layer"/>
  <g id="_1645654040304">
   <path class="fil0" d="M1.14 1.08c0.15,-0.03 0.3,0.04 0.38,0.11 0.27,0.25 0.21,0.64 -0.08,0.81 -0.12,0.07 -0.27,0.08 -0.4,0.04 -0.07,-0.03 -0.1,-0.05 -0.16,-0.09 -0.04,-0.03 -0.08,-0.09 -0.11,-0.14 -0.03,-0.05 -0.06,-0.11 -0.06,-0.18 -0.01,-0.08 0,-0.16 0.02,-0.23 0.01,-0.03 0.02,-0.05 0.04,-0.08 0.02,-0.04 0.05,-0.08 0.08,-0.11 0.01,0 0.01,-0.01 0.02,-0.01 0.03,-0.03 0.04,-0.04 0.09,-0.06 0.06,-0.04 0.11,-0.05 0.18,-0.06zm0.62 0.61c0.01,-0.01 0.01,-0.01 0.01,-0.01 0.03,0 0.22,0.08 0.23,0.08 0.01,-0.01 0.05,-0.06 0.05,-0.08 -0.01,-0.01 -0.03,-0.01 -0.04,-0.02 -0.04,-0.01 -0.22,-0.07 -0.23,-0.08 -0.01,-0.06 0,-0.08 -0.02,-0.17 -0.02,-0.05 -0.05,-0.13 -0.05,-0.13 0.03,-0.03 0.05,-0.07 0.05,-0.12 0,-0.06 0,-0.11 -0.01,-0.17 -0.02,-0.15 -0.1,-0.13 -0.2,-0.13 0.01,-0.03 0,-0.09 0,-0.12 0.01,-0.1 0.01,-0.2 -0.04,-0.3 0,0 0,0 0,-0.01 0,0 0,0 -0.01,0 0,-0.03 -0.06,-0.1 -0.08,-0.12 -0.03,-0.03 -0.08,-0.07 -0.12,-0.08 -0.15,-0.06 -0.31,-0.05 -0.34,-0.07 0.01,-0.01 0.03,-0.05 0.04,-0.07 0.01,-0.01 0.02,-0.02 0.02,-0.02 0.01,-0.02 0.03,-0.02 0.02,-0.04 -0.01,0 -0.09,0.02 -0.12,0.03l-0.24 0.04c-0.04,0.01 -0.08,0.01 -0.12,0.02 0,-0.06 0.03,-0.1 0.03,-0.12 -0.01,0 -0.07,0.05 -0.09,0.07 0,0 -0.01,0 -0.01,0l-0.12 0.1c-0.02,0.02 -0.02,0.02 -0.05,0.06 -0.01,0.01 -0.01,0.02 -0.02,0.02 -0.04,0.05 -0.09,0.15 -0.09,0.22 -0.01,0.06 -0.01,0.34 0,0.38 -0.18,-0.01 -0.21,0.05 -0.21,0.24 0,0.07 0,0.14 0.04,0.18 0.05,0.04 0.1,0.04 0.18,0.05 0,0.02 0,0.05 0,0.08 0.01,0.02 0.02,0.05 0.02,0.07 0,0 0,0.01 0,0.01 0,0.01 0,0.01 0.01,0.01 0,0.05 0.07,0.16 0.09,0.19 0.1,0.12 0.2,0.18 0.35,0.23 0.02,0.01 0.04,0.01 0.05,0.02 0.04,0.05 0.06,0.07 0.11,0.11 0.05,0.03 0.13,0.07 0.2,0.09 0.16,0.04 0.32,0.01 0.46,-0.08 0.05,-0.03 0.08,-0.06 0.12,-0.1 0.01,-0.01 0.02,-0.02 0.03,-0.03 0.01,-0.01 0.18,0.06 0.2,0.06l0.04 -0.03c0.01,-0.01 0.01,-0.01 0.02,-0.02 0.01,0 0.01,0 0.01,-0.02 -0.01,-0.01 -0.18,-0.06 -0.22,-0.08 0.01,-0.01 0.02,-0.03 0.03,-0.05 0,0 0,0 0,-0.01 0,0 0,0 0,-0.01 0.01,-0.02 0.02,-0.05 0.02,-0.07zm-0.75 0c0.01,0 0.02,-0.01 0.04,0 0.03,0 0.02,0.01 0.03,-0.02 0,-0.03 0.02,-0.04 0.04,-0.06 0.02,-0.01 0.05,-0.01 0.08,-0.01 0.05,-0.01 0.07,0.01 0.08,-0.01 0.03,0.07 -0.01,0.07 -0.01,0.09 0,0 -0.01,0.01 -0.01,0.02 -0.02,0.05 -0.05,0.09 -0.11,0.09 -0.04,-0.01 -0.05,-0.04 -0.07,-0.05 -0.02,0.02 0,0.03 -0.05,0.03l0 -0.04c-0.01,-0.01 -0.02,-0.01 -0.02,-0.04zm0.26 -0.23c-0.02,-0.02 -0.02,-0.06 -0.05,-0.07 -0.05,-0.02 -0.06,0.1 -0.1,0.12 -0.03,0.02 -0.11,-0.06 -0.09,-0.12 0,-0.01 0.04,-0.05 0.05,-0.06 0.01,-0.01 0.04,-0.02 0.03,-0.08 -0.01,-0.01 -0.01,-0.02 -0.01,-0.04 0,-0.02 0,-0.04 0,-0.05 -0.04,-0.01 -0.1,0.03 -0.12,0.04 -0.11,0.06 -0.18,0.17 -0.2,0.3 -0.02,0.1 0.01,0.21 0.05,0.28 0.02,0.04 0.04,0.07 0.07,0.1 0.05,0.05 0.06,0.05 0.11,0.05 0.12,-0.02 0.21,-0.07 0.29,-0.13 0.06,-0.05 0.17,-0.18 0.19,-0.23 0.01,-0.05 0.05,-0.26 0.03,-0.29 -0.02,-0.02 -0.08,-0.07 -0.1,-0.07 0.01,0.03 0.08,0.04 0.09,0.12 0,0.05 -0.02,0.07 -0.08,0.08 -0.03,0.01 -0.05,0 -0.04,0.02 0.04,0.05 -0.1,0.03 -0.12,0.03z"/>
   <g>
    <path class="fil1" d="M4.23 1.69l-0.37 -1.07c-0.03,-0.08 -0.06,-0.09 -0.12,-0.09 -0.05,0 -0.09,0.02 -0.12,0.09l-0.38 1.07 0.24 0 0.06 -0.2 0.39 0 0.07 0.2 0.23 0zm-0.35 -0.39l-0.28 0 0.14 -0.46 0.14 0.46z"/>
    <path class="fil1" d="M5.21 1.1c0,-0.17 0.02,-0.33 -0.11,-0.46 -0.08,-0.08 -0.19,-0.11 -0.31,-0.11l-0.45 0 0 0.85c0,0.23 0.1,0.31 0.43,0.31 0.12,0 0.25,-0.04 0.33,-0.11 0.1,-0.1 0.11,-0.22 0.12,-0.35l-0.01 -0.13zm-0.22 0c0,0.18 -0.01,0.26 -0.05,0.31 -0.04,0.05 -0.09,0.08 -0.17,0.08 -0.16,0 -0.21,-0.03 -0.21,-0.12l0 -0.64 0.21 0c0.08,0 0.13,0.02 0.17,0.07 0.04,0.05 0.05,0.13 0.05,0.3z"/>
    <path class="fil1" d="M6.12 1.69l0 -0.2 -0.39 0c-0.11,0 -0.15,-0.03 -0.15,-0.13l0 -0.16 0.36 0 0.02 -0.2 -0.38 0 0 -0.27 0.54 0 0 -0.2 -0.76 0 0 0.85c0,0.23 0.09,0.31 0.35,0.31l0.41 0z"/>
    <path class="fil1" d="M3.23 1.34c0,-0.21 -0.12,-0.3 -0.31,-0.33l-0.19 -0.02c-0.07,-0.01 -0.14,-0.05 -0.14,-0.13 0,-0.08 0.08,-0.15 0.21,-0.15 0.08,0 0.17,0.03 0.19,0.15l0.21 -0.01c0,-0.2 -0.17,-0.33 -0.39,-0.33 -0.27,0 -0.44,0.14 -0.44,0.35 0,0.2 0.13,0.3 0.31,0.32l0.19 0.02c0.08,0.02 0.14,0.06 0.14,0.14 0,0.09 -0.07,0.14 -0.21,0.14 -0.1,0 -0.24,-0.05 -0.24,-0.18l-0.2 0.01c0,0.28 0.26,0.38 0.44,0.38 0.24,0 0.43,-0.13 0.43,-0.36l0 0z"/>
   </g>
  </g>
 </g>
</svg>
