<?xml version="1.0" encoding="UTF-8"?>
<!DOCTYPE svg PUBLIC "-//W3C//DTD SVG 1.1//EN" "http://www.w3.org/Graphics/SVG/1.1/DTD/svg11.dtd">
<!-- Creator: CorelDRAW 2017 -->
<svg xmlns="http://www.w3.org/2000/svg" xml:space="preserve" width="512px" height="146px" version="1.1" style="shape-rendering:geometricPrecision; text-rendering:geometricPrecision; image-rendering:optimizeQuality; fill-rule:evenodd; clip-rule:evenodd"
viewBox="0 0 7.53 2.15"
 xmlns:xlink="http://www.w3.org/1999/xlink">
 <defs>
  <style type="text/css">
   <![CDATA[
    .fil0 {fill:black}
    .fil1 {fill:#1E66BD;fill-rule:nonzero}
   ]]>
  </style>
 </defs>
 <g id="Layer_x0020_1">
  <metadata id="CorelCorpID_0Corel-Layer"/>
  <g id="_1645649592064">
   <path class="fil0" d="M1.15 1.08c0.14,-0.03 0.29,0.04 0.37,0.11 0.28,0.25 0.21,0.65 -0.07,0.81 -0.12,0.07 -0.28,0.08 -0.41,0.04 -0.07,-0.03 -0.1,-0.05 -0.16,-0.09 -0.04,-0.03 -0.08,-0.08 -0.11,-0.13 -0.03,-0.06 -0.06,-0.12 -0.06,-0.19 -0.01,-0.08 0,-0.16 0.02,-0.22 0.01,-0.04 0.03,-0.06 0.04,-0.09 0.02,-0.04 0.05,-0.08 0.08,-0.1 0.01,-0.01 0.01,-0.01 0.02,-0.02 0.04,-0.03 0.04,-0.03 0.09,-0.06 0.06,-0.04 0.11,-0.05 0.19,-0.06zm0.62 0.61c0,-0.01 0,-0.01 0.01,0 0.02,0 0.21,0.07 0.22,0.07 0.02,-0.01 0.05,-0.06 0.05,-0.08 -0.01,-0.01 -0.02,-0.01 -0.04,-0.02 -0.04,-0.01 -0.21,-0.06 -0.23,-0.07 -0.01,-0.07 0.01,-0.08 -0.02,-0.18 -0.01,-0.05 -0.05,-0.13 -0.05,-0.13 0.03,-0.03 0.05,-0.07 0.05,-0.12 0,-0.06 0,-0.11 -0.01,-0.16 -0.02,-0.16 -0.1,-0.14 -0.2,-0.14 0.01,-0.03 0.01,-0.09 0.01,-0.12 0,-0.1 0,-0.2 -0.05,-0.3 0,0 0,0 0,-0.01 0,0 0,0 0,0 -0.01,-0.03 -0.07,-0.1 -0.09,-0.12 -0.03,-0.03 -0.07,-0.07 -0.12,-0.08 -0.15,-0.06 -0.31,-0.05 -0.34,-0.07 0.01,-0.01 0.03,-0.05 0.04,-0.07 0.01,-0.01 0.02,-0.02 0.03,-0.02 0,-0.02 0.02,-0.02 0.01,-0.04 -0.01,0 -0.09,0.02 -0.11,0.03l-0.25 0.04c-0.04,0.01 -0.08,0.01 -0.12,0.02 0,-0.06 0.03,-0.1 0.03,-0.12 -0.01,0 -0.07,0.05 -0.09,0.07 0,0 -0.01,0 -0.01,0l-0.12 0.1c-0.02,0.02 -0.02,0.02 -0.05,0.06 -0.01,0.01 -0.01,0.02 -0.02,0.02 -0.04,0.05 -0.09,0.15 -0.09,0.22 -0.01,0.06 -0.01,0.35 0,0.38 -0.18,-0.01 -0.21,0.05 -0.21,0.24 0,0.07 0,0.14 0.04,0.18 0.05,0.04 0.1,0.04 0.18,0.05 0,0.03 0,0.05 0,0.08 0.01,0.02 0.02,0.05 0.02,0.07 0,0 0,0.01 0,0.01 0,0.01 0,0.01 0.01,0.01 0,0.05 0.07,0.16 0.09,0.2 0.1,0.11 0.21,0.17 0.35,0.22 0.02,0.01 0.04,0.01 0.05,0.02 0.04,0.05 0.06,0.07 0.11,0.11 0.05,0.04 0.13,0.07 0.2,0.09 0.17,0.04 0.32,0.01 0.46,-0.07 0.05,-0.04 0.08,-0.06 0.12,-0.11 0.01,-0.01 0.02,-0.02 0.03,-0.03 0.01,0 0.18,0.06 0.2,0.06l0.04 -0.03c0.01,0 0.01,-0.01 0.02,-0.01 0.01,-0.01 0.01,-0.01 0.01,-0.03 -0.01,0 -0.18,-0.06 -0.21,-0.07 0,-0.02 0.01,-0.04 0.02,-0.06 0,0 0,0 0,-0.01 0,0 0,0 0,0 0.01,-0.02 0.03,-0.06 0.03,-0.08zm-0.76 0c0.02,0 0.02,0 0.04,0 0.03,0 0.02,0.01 0.03,-0.02 0,-0.03 0.02,-0.04 0.04,-0.05 0.03,-0.02 0.05,-0.02 0.09,-0.02 0.04,0 0.06,0.01 0.08,0 0.02,0.06 -0.02,0.06 -0.02,0.08 0,0 -0.01,0.02 -0.01,0.02 -0.01,0.05 -0.05,0.09 -0.11,0.09 -0.04,0 -0.04,-0.04 -0.06,-0.05 -0.03,0.02 0,0.03 -0.06,0.03l0 -0.04c-0.01,-0.01 -0.02,-0.01 -0.02,-0.04zm0.26 -0.23c-0.02,-0.02 -0.02,-0.06 -0.04,-0.07 -0.06,-0.02 -0.07,0.1 -0.1,0.12 -0.04,0.02 -0.12,-0.06 -0.1,-0.12 0,-0.01 0.04,-0.05 0.05,-0.06 0.02,-0.01 0.04,-0.02 0.03,-0.07 -0.01,-0.02 -0.01,-0.03 -0.01,-0.05 0,-0.02 0,-0.04 0,-0.05 -0.03,-0.01 -0.1,0.03 -0.12,0.04 -0.11,0.07 -0.18,0.17 -0.2,0.3 -0.02,0.1 0.01,0.21 0.05,0.28 0.02,0.04 0.04,0.07 0.07,0.1 0.06,0.05 0.06,0.05 0.11,0.05 0.13,-0.01 0.21,-0.06 0.29,-0.13 0.06,-0.04 0.17,-0.18 0.19,-0.23 0.01,-0.04 0.05,-0.26 0.03,-0.29 -0.02,-0.02 -0.08,-0.07 -0.1,-0.07 0.01,0.03 0.08,0.05 0.09,0.12 0,0.05 -0.02,0.07 -0.07,0.08 -0.04,0.01 -0.06,0 -0.05,0.02 0.04,0.05 -0.09,0.04 -0.12,0.03z"/>
   <g>
    <path class="fil1" d="M4.97 1.86l-0.5 -1.44c-0.04,-0.11 -0.09,-0.13 -0.16,-0.13 -0.08,0 -0.13,0.03 -0.18,0.13l-0.5 1.44 0.32 0 0.08 -0.27 0.53 0 0.09 0.27 0.32 0zm-0.48 -0.53l-0.38 0 0.2 -0.62 0.18 0.62z"/>
    <path class="fil1" d="M6.3 1.07c-0.01,-0.24 0.01,-0.45 -0.16,-0.63 -0.11,-0.1 -0.25,-0.15 -0.42,-0.15l-0.61 0 0 1.16c0,0.31 0.14,0.41 0.59,0.41 0.16,0 0.33,-0.05 0.44,-0.15 0.13,-0.13 0.15,-0.3 0.16,-0.47l0 -0.17zm-0.31 0c0,0.24 -0.01,0.35 -0.07,0.42 -0.05,0.06 -0.12,0.1 -0.23,0.1 -0.21,0 -0.27,-0.04 -0.27,-0.16l0 -0.87 0.27 0c0.11,0 0.18,0.04 0.23,0.1 0.06,0.07 0.07,0.17 0.07,0.41z"/>
    <path class="fil1" d="M7.53 1.86l0 -0.27 -0.54 0c-0.14,0 -0.19,-0.04 -0.19,-0.17l0 -0.21 0.49 0 0.02 -0.28 -0.51 0 0 -0.37 0.73 0 0 -0.27 -1.04 0 0 1.16c0,0.31 0.13,0.41 0.48,0.41l0.56 0z"/>
    <path class="fil1" d="M3.61 1.4c0,-0.29 -0.16,-0.42 -0.42,-0.46l-0.25 -0.02c-0.1,-0.02 -0.2,-0.07 -0.2,-0.18 0,-0.11 0.1,-0.2 0.29,-0.2 0.1,0 0.23,0.04 0.26,0.19l0.27 -0.01c0,-0.27 -0.23,-0.44 -0.52,-0.44 -0.36,0 -0.59,0.19 -0.59,0.47 0,0.27 0.17,0.41 0.41,0.44l0.26 0.03c0.12,0.02 0.19,0.08 0.19,0.19 0,0.12 -0.1,0.19 -0.28,0.19 -0.14,0 -0.32,-0.08 -0.32,-0.25l-0.28 0.01c0,0.38 0.36,0.51 0.6,0.51 0.33,0 0.58,-0.17 0.58,-0.47l0 0z"/>
   </g>
  </g>
 </g>
</svg>
