<?xml version="1.0" encoding="UTF-8"?>
<!DOCTYPE svg PUBLIC "-//W3C//DTD SVG 1.1//EN" "http://www.w3.org/Graphics/SVG/1.1/DTD/svg11.dtd">
<!-- Creator: CorelDRAW 2017 -->
<svg xmlns="http://www.w3.org/2000/svg" xml:space="preserve" width="512px" height="164px" version="1.1" style="shape-rendering:geometricPrecision; text-rendering:geometricPrecision; image-rendering:optimizeQuality; fill-rule:evenodd; clip-rule:evenodd"
viewBox="0 0 6.68 2.15"
 xmlns:xlink="http://www.w3.org/1999/xlink">
 <defs>
  <style type="text/css">
   <![CDATA[
    .fil0 {fill:black}
    .fil1 {fill:#1E66BD;fill-rule:nonzero}
   ]]>
  </style>
 </defs>
 <g id="Layer_x0020_1">
  <metadata id="CorelCorpID_0Corel-Layer"/>
  <g id="_1647044665552">
   <path class="fil0" d="M1.15 1.08c0.14,-0.03 0.29,0.04 0.37,0.11 0.28,0.25 0.21,0.65 -0.07,0.81 -0.12,0.07 -0.28,0.08 -0.41,0.04 -0.07,-0.03 -0.1,-0.05 -0.16,-0.09 -0.04,-0.03 -0.08,-0.08 -0.11,-0.14 -0.03,-0.05 -0.06,-0.11 -0.06,-0.18 -0.01,-0.08 0,-0.16 0.02,-0.22 0.01,-0.04 0.03,-0.06 0.04,-0.09 0.02,-0.04 0.05,-0.08 0.08,-0.1 0.01,-0.01 0.01,-0.01 0.02,-0.02 0.04,-0.03 0.04,-0.03 0.09,-0.06 0.06,-0.04 0.11,-0.05 0.19,-0.06zm0.61 0.61c0.01,-0.01 0.01,-0.01 0.02,0 0.02,0 0.21,0.07 0.22,0.07 0.02,-0.01 0.05,-0.06 0.05,-0.08 -0.01,-0.01 -0.02,-0.01 -0.04,-0.02 -0.04,-0.01 -0.21,-0.07 -0.23,-0.07 -0.01,-0.07 0.01,-0.08 -0.02,-0.18 -0.01,-0.05 -0.05,-0.13 -0.05,-0.13 0.03,-0.03 0.05,-0.07 0.05,-0.12 0,-0.06 0,-0.11 -0.01,-0.16 -0.02,-0.16 -0.1,-0.14 -0.2,-0.14 0.01,-0.03 0.01,-0.09 0.01,-0.12 0,-0.1 0,-0.2 -0.05,-0.3 0,0 0,0 0,-0.01 0,0 0,0 0,0 -0.01,-0.03 -0.07,-0.1 -0.09,-0.12 -0.03,-0.03 -0.07,-0.07 -0.12,-0.08 -0.15,-0.06 -0.31,-0.05 -0.34,-0.07 0.01,-0.01 0.03,-0.05 0.04,-0.07 0.01,-0.01 0.02,-0.02 0.03,-0.02 0,-0.02 0.02,-0.02 0.01,-0.04 -0.01,0 -0.09,0.02 -0.11,0.03l-0.25 0.04c-0.04,0.01 -0.08,0.01 -0.12,0.02 0,-0.06 0.03,-0.1 0.03,-0.12 -0.01,0 -0.07,0.05 -0.09,0.07 0,0 -0.01,0 -0.01,0l-0.12 0.1c-0.02,0.02 -0.02,0.02 -0.05,0.06 -0.01,0.01 -0.01,0.02 -0.02,0.02 -0.04,0.05 -0.09,0.15 -0.09,0.22 -0.01,0.06 -0.01,0.35 0,0.38 -0.18,-0.01 -0.21,0.05 -0.21,0.24 0,0.07 0,0.14 0.04,0.18 0.05,0.04 0.1,0.04 0.18,0.05 0,0.02 0,0.05 0,0.08 0.01,0.02 0.02,0.05 0.02,0.07 0,0 0,0.01 0,0.01 0,0.01 0,0.01 0.01,0.01 0,0.05 0.07,0.16 0.09,0.19 0.1,0.12 0.21,0.18 0.35,0.23 0.02,0.01 0.04,0.01 0.05,0.02 0.04,0.05 0.06,0.07 0.11,0.11 0.05,0.04 0.13,0.07 0.2,0.09 0.16,0.04 0.32,0.01 0.46,-0.08 0.05,-0.03 0.08,-0.06 0.12,-0.1 0.01,-0.01 0.02,-0.02 0.03,-0.03 0.01,0 0.18,0.06 0.2,0.06l0.04 -0.03c0.01,0 0.01,-0.01 0.02,-0.02 0.01,0 0.01,0 0.01,-0.02 -0.01,-0.01 -0.18,-0.06 -0.21,-0.07 0,-0.02 0.01,-0.04 0.02,-0.06 0,0 0,0 0,-0.01 0,0 0,0 0,-0.01 0.01,-0.01 0.02,-0.05 0.02,-0.07zm-0.75 0c0.01,0 0.02,-0.01 0.04,0 0.03,0 0.02,0.01 0.03,-0.02 0,-0.03 0.02,-0.04 0.04,-0.05 0.03,-0.02 0.05,-0.02 0.09,-0.02 0.04,0 0.06,0.01 0.08,0 0.02,0.06 -0.02,0.06 -0.02,0.08 0,0 -0.01,0.02 -0.01,0.02 -0.01,0.05 -0.05,0.09 -0.11,0.09 -0.04,0 -0.04,-0.04 -0.07,-0.05 -0.02,0.02 0.01,0.03 -0.05,0.03l0 -0.04c-0.01,-0.01 -0.02,-0.01 -0.02,-0.04zm0.26 -0.23c-0.02,-0.02 -0.02,-0.06 -0.05,-0.07 -0.05,-0.02 -0.06,0.1 -0.09,0.12 -0.04,0.02 -0.12,-0.06 -0.1,-0.12 0,-0.01 0.04,-0.05 0.05,-0.06 0.02,-0.01 0.04,-0.02 0.03,-0.07 -0.01,-0.02 -0.01,-0.03 -0.01,-0.05 0,-0.02 0,-0.04 0,-0.05 -0.03,-0.01 -0.1,0.03 -0.12,0.04 -0.11,0.07 -0.18,0.17 -0.2,0.3 -0.02,0.1 0.01,0.21 0.05,0.28 0.02,0.04 0.04,0.07 0.07,0.1 0.06,0.05 0.06,0.05 0.11,0.05 0.13,-0.01 0.21,-0.06 0.29,-0.13 0.06,-0.05 0.17,-0.18 0.19,-0.23 0.01,-0.04 0.05,-0.26 0.03,-0.29 -0.02,-0.02 -0.08,-0.07 -0.1,-0.07 0.01,0.03 0.08,0.05 0.09,0.12 0,0.05 -0.02,0.07 -0.07,0.08 -0.04,0.01 -0.06,0 -0.05,0.02 0.04,0.05 -0.09,0.04 -0.12,0.03z"/>
   <g>
    <path class="fil1" d="M4.49 1.75l-0.43 -1.23c-0.04,-0.1 -0.08,-0.12 -0.14,-0.12 -0.07,0 -0.11,0.02 -0.15,0.12l-0.43 1.23 0.27 0 0.08 -0.23 0.45 0 0.07 0.23 0.28 0zm-0.41 -0.46l-0.33 0 0.17 -0.53 0.16 0.53z"/>
    <path class="fil1" d="M5.62 1.07c0,-0.2 0.02,-0.39 -0.13,-0.54 -0.09,-0.09 -0.22,-0.13 -0.36,-0.13l-0.52 0 0 0.99c0,0.27 0.11,0.36 0.5,0.36 0.14,0 0.29,-0.04 0.38,-0.13 0.11,-0.12 0.13,-0.26 0.14,-0.41l-0.01 -0.14zm-0.26 0c0,0.2 -0.01,0.3 -0.06,0.36 -0.04,0.05 -0.1,0.08 -0.19,0.08 -0.18,0 -0.24,-0.03 -0.24,-0.13l0 -0.74 0.24 0c0.09,0 0.15,0.02 0.19,0.08 0.05,0.06 0.06,0.14 0.06,0.35z"/>
    <path class="fil1" d="M6.68 1.75l0 -0.24 -0.46 0c-0.13,0 -0.17,-0.03 -0.17,-0.14l0 -0.18 0.42 0 0.02 -0.24 -0.44 0 0 -0.31 0.63 0 0 -0.24 -0.89 0 0 0.99c0,0.27 0.11,0.36 0.41,0.36l0.48 0z"/>
    <path class="fil1" d="M3.32 1.35c0,-0.24 -0.14,-0.36 -0.36,-0.39l-0.22 -0.02c-0.08,-0.01 -0.16,-0.06 -0.16,-0.15 0,-0.09 0.09,-0.17 0.25,-0.17 0.08,0 0.19,0.03 0.22,0.16l0.23 -0.01c0,-0.23 -0.19,-0.38 -0.45,-0.38 -0.31,0 -0.5,0.17 -0.5,0.41 0,0.23 0.15,0.34 0.35,0.37l0.22 0.03c0.1,0.01 0.16,0.06 0.16,0.16 0,0.11 -0.08,0.16 -0.23,0.16 -0.13,0 -0.28,-0.06 -0.28,-0.21l-0.24 0.01c0,0.33 0.31,0.44 0.51,0.44 0.29,0 0.5,-0.15 0.5,-0.41l0 0z"/>
   </g>
  </g>
 </g>
</svg>
