<?xml version="1.0" standalone="no"?>
<!DOCTYPE svg PUBLIC "-//W3C//DTD SVG 20010904//EN"
 "http://www.w3.org/TR/2001/REC-SVG-20010904/DTD/svg10.dtd">
<svg version="1.0" xmlns="http://www.w3.org/2000/svg"
 width="2048.000000pt" height="2048.000000pt" viewBox="0 0 2048.000000 2048.000000"
 preserveAspectRatio="xMidYMid meet">
<metadata>
Created by potrace 1.15, written by Peter Selinger 2001-2017
</metadata>
<g transform="translate(0.000000,2048.000000) scale(0.100000,-0.100000)"
fill="#000000" stroke="none">
<path d="M8046 17815 c-14 -14 -30 -25 -37 -25 -6 0 -24 -13 -39 -30 -15 -16
-33 -30 -40 -30 -6 0 -29 -18 -50 -40 -21 -22 -44 -40 -50 -40 -7 0 -25 -13
-40 -30 -15 -16 -33 -30 -40 -30 -6 0 -29 -18 -50 -40 -21 -22 -44 -40 -50
-40 -6 0 -29 -18 -50 -40 -21 -22 -44 -40 -50 -40 -7 0 -25 -13 -40 -30 -15
-16 -33 -30 -38 -30 -5 0 -33 -22 -61 -50 -28 -27 -56 -50 -62 -50 -6 0 -28
-18 -49 -40 -21 -22 -44 -40 -50 -40 -6 0 -33 -22 -60 -50 -27 -27 -54 -50
-60 -50 -6 0 -33 -22 -60 -50 -27 -27 -54 -50 -60 -50 -6 0 -38 -27 -70 -60
-32 -33 -64 -60 -70 -60 -6 0 -38 -27 -70 -60 -32 -33 -64 -60 -70 -60 -6 0
-46 -36 -90 -80 -44 -44 -84 -80 -90 -80 -14 0 -320 -307 -320 -321 0 -5 -22
-32 -50 -59 -27 -27 -50 -54 -50 -60 0 -6 -18 -29 -40 -50 -22 -21 -40 -44
-40 -50 0 -7 -13 -25 -30 -40 -16 -15 -30 -34 -30 -42 0 -7 -9 -20 -20 -28
-11 -8 -20 -21 -20 -30 0 -9 -9 -22 -20 -30 -11 -8 -20 -21 -20 -28 0 -8 -13
-27 -30 -42 -16 -15 -30 -35 -30 -44 0 -9 -4 -16 -10 -16 -5 0 -10 -8 -10 -18
0 -10 -9 -24 -20 -32 -11 -8 -20 -22 -20 -32 0 -10 -4 -18 -10 -18 -5 0 -10
-6 -10 -13 0 -7 -9 -23 -20 -35 -11 -12 -20 -28 -20 -37 0 -8 -4 -15 -10 -15
-5 0 -10 -9 -10 -20 0 -11 -4 -20 -10 -20 -5 0 -10 -9 -10 -20 0 -11 -4 -20
-10 -20 -5 0 -10 -8 -10 -18 0 -10 -9 -24 -20 -32 -11 -8 -20 -22 -20 -32 0
-10 -4 -18 -10 -18 -5 0 -10 -9 -10 -20 0 -11 -4 -20 -10 -20 -5 0 -10 -13
-10 -30 0 -16 -4 -30 -10 -30 -5 0 -10 -9 -10 -20 0 -11 -4 -20 -10 -20 -5 0
-10 -9 -10 -20 0 -11 -4 -20 -10 -20 -5 0 -10 -9 -10 -20 0 -11 -4 -20 -10
-20 -5 0 -10 -13 -10 -30 0 -16 -4 -30 -10 -30 -5 0 -10 -13 -10 -30 0 -16 -4
-30 -10 -30 -5 0 -10 -9 -10 -20 0 -11 -4 -20 -10 -20 -5 0 -10 -13 -10 -30 0
-16 -4 -30 -10 -30 -5 0 -10 -13 -10 -30 0 -16 -4 -30 -10 -30 -5 0 -10 -18
-10 -40 0 -22 -4 -40 -10 -40 -5 0 -10 -9 -10 -20 0 -11 -4 -20 -10 -20 -5 0
-10 -22 -10 -50 0 -27 -4 -50 -10 -50 -6 0 -10 -43 -10 -109 0 -63 -4 -112
-10 -116 -6 -4 -10 -118 -10 -310 0 -192 -4 -306 -10 -310 -14 -9 -14 -1491 0
-1500 6 -4 10 -115 10 -301 l0 -294 -89 0 c-50 0 -93 5 -96 10 -4 6 -62 10
-140 10 -78 0 -136 -4 -140 -10 -3 -5 -40 -10 -81 -10 -43 0 -74 -4 -74 -10 0
-5 -22 -10 -50 -10 -27 0 -50 -4 -50 -10 0 -5 -18 -10 -40 -10 -22 0 -40 -4
-40 -10 0 -5 -11 -10 -24 -10 -14 0 -28 -4 -31 -10 -3 -5 -15 -10 -26 -10 -10
0 -19 -4 -19 -10 0 -5 -9 -10 -20 -10 -11 0 -20 -4 -20 -10 0 -5 -9 -10 -20
-10 -11 0 -20 -4 -20 -10 0 -5 -9 -10 -20 -10 -11 0 -20 -4 -20 -10 0 -5 -8
-10 -18 -10 -10 0 -24 -9 -32 -20 -8 -11 -22 -20 -32 -20 -10 0 -18 -7 -18
-15 0 -8 -22 -38 -50 -66 -27 -28 -50 -57 -50 -65 0 -8 -4 -14 -10 -14 -5 0
-10 -9 -10 -20 0 -11 -4 -20 -10 -20 -5 0 -10 -9 -10 -20 0 -11 -4 -20 -10
-20 -5 0 -10 -9 -10 -20 0 -11 -4 -20 -10 -20 -5 0 -10 -9 -10 -20 0 -11 -4
-20 -10 -20 -5 0 -10 -13 -10 -30 0 -16 -4 -30 -10 -30 -5 0 -10 -13 -10 -30
0 -16 -4 -30 -10 -30 -5 0 -10 -13 -10 -30 0 -16 -4 -30 -10 -30 -5 0 -10 -18
-10 -39 0 -22 -4 -43 -10 -46 -6 -3 -10 -28 -10 -55 0 -27 -4 -52 -10 -55 -5
-3 -10 -33 -10 -66 0 -33 -4 -59 -10 -59 -6 0 -10 -36 -10 -89 0 -59 -4 -91
-12 -93 -17 -6 -18 -1120 0 -1125 8 -3 12 -25 12 -64 0 -33 4 -59 10 -59 6 0
10 -30 10 -70 0 -40 4 -70 10 -70 6 0 10 -18 10 -40 0 -22 5 -40 10 -40 6 0
10 -11 10 -24 0 -14 5 -28 10 -31 5 -3 10 -15 10 -26 0 -10 5 -19 10 -19 6 0
10 -9 10 -20 0 -11 5 -20 10 -20 6 0 10 -8 10 -18 0 -10 9 -24 20 -32 11 -8
20 -20 20 -27 0 -19 207 -223 225 -223 8 0 15 -4 15 -10 0 -5 8 -10 18 -10 10
0 24 -9 32 -20 8 -11 22 -20 32 -20 10 0 18 -4 18 -10 0 -5 9 -10 20 -10 11 0
20 -4 20 -10 0 -5 9 -10 20 -10 11 0 20 -4 20 -10 0 -5 14 -10 30 -10 17 0 30
-4 30 -10 0 -5 9 -10 20 -10 11 0 20 -4 20 -10 0 -5 18 -10 40 -10 22 0 40 -4
40 -10 0 -5 14 -10 30 -10 17 0 30 -4 30 -10 0 -5 18 -10 40 -10 22 0 40 -4
40 -10 0 -6 27 -10 60 -10 33 0 60 -4 60 -10 0 -6 30 -10 70 -10 40 0 70 -4
70 -10 0 -6 46 -10 119 -10 69 0 122 -4 126 -10 8 -13 65 -13 65 0 0 6 16 10
35 10 l35 0 0 -154 c0 -93 4 -157 10 -161 6 -3 10 -46 10 -96 0 -53 4 -89 10
-89 6 0 10 -30 10 -70 0 -40 4 -70 10 -70 6 0 10 -27 10 -60 0 -33 4 -60 10
-60 6 0 10 -22 10 -50 0 -27 5 -50 10 -50 6 0 10 -22 10 -50 0 -27 5 -50 10
-50 6 0 10 -18 10 -40 0 -22 5 -40 10 -40 6 0 10 -18 10 -40 0 -22 5 -40 10
-40 6 0 10 -13 10 -30 0 -16 5 -30 10 -30 6 0 10 -18 10 -40 0 -22 5 -40 10
-40 6 0 10 -13 10 -30 0 -16 5 -30 10 -30 6 0 10 -13 10 -30 0 -16 5 -30 10
-30 6 0 10 -13 10 -30 0 -16 5 -30 10 -30 6 0 10 -13 10 -30 0 -16 5 -30 10
-30 6 0 10 -13 10 -30 0 -16 5 -30 10 -30 6 0 10 -9 10 -20 0 -11 5 -20 10
-20 6 0 10 -13 10 -30 0 -16 5 -30 10 -30 6 0 10 -9 10 -20 0 -11 5 -20 10
-20 6 0 10 -9 10 -20 0 -11 5 -20 10 -20 6 0 10 -11 10 -24 0 -14 5 -28 10
-31 6 -3 10 -15 10 -26 0 -10 5 -19 10 -19 6 0 10 -9 10 -20 0 -11 5 -20 10
-20 6 0 10 -9 10 -20 0 -11 5 -20 10 -20 6 0 10 -9 10 -20 0 -11 5 -20 10 -20
6 0 10 -9 10 -20 0 -11 5 -20 10 -20 6 0 10 -9 10 -20 0 -11 5 -20 10 -20 6 0
10 -8 10 -18 0 -10 9 -24 20 -32 11 -8 20 -22 20 -32 0 -10 5 -18 10 -18 6 0
10 -9 10 -20 0 -11 5 -20 10 -20 6 0 10 -8 10 -18 0 -10 9 -24 20 -32 11 -8
20 -21 20 -30 0 -9 9 -22 20 -30 11 -8 20 -21 20 -30 0 -9 9 -22 20 -30 11 -8
20 -22 20 -32 0 -10 5 -18 10 -18 6 0 10 -7 10 -16 0 -9 13 -29 30 -44 16 -15
30 -33 30 -40 0 -7 13 -25 30 -40 17 -15 30 -33 30 -40 0 -7 14 -25 30 -40 17
-15 30 -33 30 -40 0 -6 18 -29 40 -50 22 -21 40 -44 40 -50 0 -6 27 -38 60
-70 33 -32 60 -64 60 -70 0 -13 347 -360 361 -360 6 0 37 -27 69 -60 32 -33
66 -60 74 -60 9 0 16 -4 16 -10 0 -5 8 -10 18 -10 10 0 24 -9 32 -20 8 -11 21
-20 30 -20 9 0 22 -9 30 -20 8 -11 21 -20 30 -20 9 0 22 -9 30 -20 8 -11 21
-20 30 -20 9 0 22 -9 30 -20 8 -11 22 -20 32 -20 10 0 18 -4 18 -10 0 -5 8
-10 18 -10 10 0 24 -9 32 -20 8 -11 22 -20 32 -20 10 0 18 -4 18 -10 0 -5 8
-10 18 -10 10 0 24 -9 32 -20 8 -11 22 -20 32 -20 10 0 18 -4 18 -10 0 -5 9
-10 20 -10 11 0 20 -4 20 -10 0 -5 7 -10 15 -10 9 0 25 -9 37 -20 12 -11 28
-20 35 -20 7 0 13 -4 13 -10 0 -5 9 -10 20 -10 11 0 20 -4 20 -10 0 -5 9 -10
20 -10 11 0 20 -4 20 -10 0 -5 9 -10 20 -10 11 0 20 -4 20 -10 0 -5 9 -10 20
-10 11 0 20 -4 20 -10 0 -5 9 -10 20 -10 11 0 20 -4 20 -10 0 -5 9 -10 20 -10
11 0 20 -4 20 -10 0 -5 9 -10 20 -10 11 0 20 -4 20 -10 0 -5 9 -10 20 -10 11
0 20 -4 20 -10 0 -5 11 -10 24 -10 14 0 28 -4 31 -10 3 -5 15 -10 26 -10 10 0
19 -4 19 -10 0 -5 9 -10 20 -10 11 0 20 -4 20 -10 0 -5 9 -10 20 -10 11 0 20
-4 20 -10 0 -5 11 -10 24 -10 14 0 28 -4 31 -10 3 -5 15 -10 26 -10 10 0 19
-4 19 -10 0 -5 9 -10 20 -10 11 0 20 -4 20 -10 0 -5 14 -10 30 -10 17 0 30 -4
30 -10 0 -5 9 -10 20 -10 11 0 20 -4 20 -10 0 -5 14 -10 30 -10 17 0 30 -4 30
-10 0 -5 9 -10 20 -10 11 0 20 -4 20 -10 0 -5 14 -10 30 -10 17 0 30 -4 30
-10 0 -5 14 -10 30 -10 17 0 30 -4 30 -10 0 -5 11 -10 24 -10 14 0 28 -4 31
-10 3 -5 15 -10 26 -10 10 0 19 -4 19 -10 0 -5 14 -10 30 -10 17 0 30 -4 30
-10 0 -5 14 -10 30 -10 17 0 30 -4 30 -10 0 -5 14 -10 30 -10 17 0 30 -4 30
-10 0 -5 14 -10 30 -10 17 0 30 -4 30 -10 0 -5 14 -10 30 -10 17 0 30 -4 30
-10 0 -5 12 -10 26 -10 26 0 54 -20 54 -39 0 -6 54 -65 120 -131 66 -67 120
-125 120 -129 0 -13 187 -201 199 -201 5 0 37 -27 70 -60 34 -33 68 -60 76
-60 8 0 15 -6 15 -13 0 -16 64 -87 77 -87 6 0 23 -12 40 -27 28 -26 39 -34 95
-65 13 -7 30 -21 39 -30 9 -10 22 -18 29 -18 6 0 25 -13 40 -30 15 -16 35 -30
44 -30 9 0 16 -4 16 -10 0 -5 6 -10 13 -10 7 0 22 -8 33 -18 30 -28 111 -82
123 -82 6 0 11 -4 11 -10 0 -5 9 -10 20 -10 11 0 20 -4 20 -10 0 -5 6 -10 13
-10 7 0 23 -9 35 -20 12 -11 28 -20 37 -20 8 0 15 -4 15 -10 0 -5 9 -10 20
-10 11 0 20 -4 20 -10 0 -5 9 -10 20 -10 11 0 20 -4 20 -10 0 -5 9 -10 20 -10
11 0 20 -4 20 -10 0 -5 14 -10 30 -10 17 0 30 -4 30 -10 0 -5 9 -10 20 -10 11
0 20 -4 20 -10 0 -5 9 -10 20 -10 11 0 20 -4 20 -10 0 -5 9 -10 20 -10 11 0
20 -4 20 -10 0 -5 11 -10 24 -10 14 0 28 -4 31 -10 3 -5 15 -10 26 -10 10 0
19 -4 19 -8 0 -12 78 -52 101 -52 10 0 19 -4 19 -10 0 -5 9 -10 19 -10 11 0
23 -5 26 -10 3 -6 17 -10 31 -10 13 0 24 -4 24 -10 0 -5 13 -10 29 -10 17 0
33 -5 36 -10 3 -6 19 -10 35 -10 16 0 32 -4 35 -10 3 -5 21 -10 40 -10 19 0
37 -5 40 -10 3 -6 19 -10 35 -10 16 0 32 -5 35 -10 3 -5 22 -10 41 -10 19 0
34 -4 34 -10 0 -5 23 -10 50 -10 28 0 50 -4 50 -10 0 -5 23 -10 50 -10 28 0
50 -4 50 -10 0 -5 22 -10 49 -10 28 0 53 -4 56 -10 3 -5 33 -10 65 -10 32 0
62 -4 65 -10 3 -5 42 -10 86 -10 46 0 79 -4 79 -10 0 -7 152 -10 435 -10 283
0 435 3 435 10 0 6 38 10 94 10 53 0 98 4 101 10 3 6 35 10 70 10 35 0 67 5
70 10 3 6 28 10 56 10 27 0 49 5 49 10 0 6 23 10 50 10 28 0 50 5 50 10 0 6
18 10 40 10 22 0 40 5 40 10 0 6 18 10 40 10 22 0 40 5 40 10 0 6 14 10 30 10
17 0 30 5 30 10 0 6 18 10 40 10 22 0 40 5 40 10 0 6 13 10 29 10 17 0 33 5
36 10 3 6 17 10 30 10 13 0 27 5 30 10 3 6 17 10 31 10 13 0 24 5 24 10 0 6
14 10 30 10 17 0 30 5 30 10 0 6 11 10 24 10 14 0 28 4 31 10 3 5 14 10 23 10
10 0 24 9 32 20 8 12 26 20 42 20 15 0 28 5 28 10 0 6 9 10 20 10 11 0 20 5
20 10 0 6 9 10 20 10 11 0 20 5 20 10 0 6 9 10 19 10 11 0 23 5 26 10 3 6 17
10 31 10 13 0 24 5 24 10 0 6 9 10 20 10 11 0 20 5 20 10 0 6 9 10 20 10 11 0
20 5 20 10 0 6 9 10 20 10 11 0 20 5 20 10 0 6 9 10 20 10 11 0 20 5 20 10 0
6 9 10 20 10 11 0 20 5 20 10 0 6 8 10 18 10 10 0 24 9 32 20 8 11 22 20 32
20 10 0 18 5 18 10 0 6 6 10 13 10 7 0 23 9 35 20 12 11 25 20 29 20 4 0 24
14 43 30 19 16 40 30 45 30 6 0 17 9 25 20 8 11 21 20 30 20 9 0 22 9 30 20 8
11 21 20 30 20 9 0 22 9 30 20 8 11 21 20 29 20 7 0 21 8 30 17 9 10 26 24 39
31 12 6 32 18 44 25 13 6 71 60 130 120 59 59 112 107 117 107 26 0 221 197
221 223 0 4 51 58 114 121 62 63 122 128 132 145 10 17 22 31 26 31 4 0 8 9 8
20 0 11 7 20 15 20 8 0 15 -4 15 -10 0 -5 14 -10 30 -10 17 0 30 -4 30 -10 0
-5 14 -10 30 -10 17 0 30 -4 30 -10 0 -5 14 -10 30 -10 17 0 30 -4 30 -10 0
-5 14 -10 30 -10 17 0 30 -4 30 -10 0 -5 14 -10 30 -10 17 0 30 -4 30 -10 0
-5 14 -10 30 -10 17 0 30 -4 30 -10 0 -5 14 -10 30 -10 17 0 30 -4 30 -10 0
-5 14 -10 30 -10 17 0 30 -4 30 -10 0 -5 14 -10 30 -10 17 0 30 -4 30 -10 0
-5 14 -10 30 -10 17 0 30 -4 30 -10 0 -5 14 -10 30 -10 17 0 30 -4 30 -10 0
-5 14 -10 30 -10 17 0 30 -4 30 -10 0 -5 14 -10 30 -10 17 0 30 -4 30 -10 0
-5 14 -10 30 -10 17 0 30 -4 30 -10 0 -5 14 -10 30 -10 17 0 30 -4 30 -10 0
-5 14 -10 30 -10 17 0 30 -4 30 -10 0 -5 14 -10 30 -10 17 0 30 -4 30 -10 0
-5 14 -10 30 -10 17 0 30 -4 30 -10 0 -5 14 -10 30 -10 17 0 30 -4 30 -10 0
-5 14 -10 30 -10 17 0 30 -4 30 -10 0 -5 14 -10 30 -10 17 0 30 -4 30 -10 0
-5 14 -10 30 -10 17 0 30 -4 30 -10 0 -5 14 -10 30 -10 17 0 30 -4 30 -10 0
-5 18 -10 40 -10 36 0 47 7 111 70 39 39 75 70 80 70 6 0 37 27 69 60 32 33
64 60 70 60 5 0 48 38 95 85 82 82 85 86 85 131 0 47 -16 74 -44 74 -9 0 -16
5 -16 10 0 6 -13 10 -30 10 -16 0 -30 5 -30 10 0 6 -13 10 -30 10 -16 0 -30 5
-30 10 0 6 -13 10 -30 10 -16 0 -30 5 -30 10 0 6 -13 10 -30 10 -16 0 -30 5
-30 10 0 6 -13 10 -30 10 -16 0 -30 5 -30 10 0 6 -13 10 -30 10 -16 0 -30 5
-30 10 0 6 -11 10 -24 10 -14 0 -28 5 -31 10 -3 6 -15 10 -26 10 -10 0 -19 5
-19 10 0 6 -13 10 -30 10 -16 0 -30 5 -30 10 0 6 -13 10 -30 10 -16 0 -30 5
-30 10 0 6 -13 10 -30 10 -16 0 -30 5 -30 10 0 6 -13 10 -30 10 -16 0 -30 5
-30 10 0 6 -13 10 -30 10 -16 0 -30 5 -30 10 0 6 -13 10 -30 10 -16 0 -30 5
-30 10 0 6 -9 10 -20 10 -11 0 -20 5 -20 10 0 6 -13 10 -30 10 -16 0 -30 5
-30 10 0 6 -13 10 -30 10 -16 0 -30 5 -30 10 0 6 -13 10 -30 10 -16 0 -30 5
-30 10 0 6 -13 10 -30 10 -16 0 -30 5 -30 10 0 6 -13 10 -30 10 -16 0 -30 5
-30 10 0 6 -13 10 -30 10 -16 0 -30 5 -30 10 0 6 -13 10 -30 10 -16 0 -30 5
-30 10 0 6 -11 10 -24 10 -14 0 -28 5 -31 10 -3 6 -15 10 -26 10 -10 0 -19 5
-19 10 0 6 -13 10 -30 10 -16 0 -30 5 -30 10 0 6 -13 10 -30 10 -25 0 -30 4
-30 25 0 14 5 25 10 25 6 0 10 11 10 24 0 14 5 28 10 31 6 3 10 15 10 26 0 10
5 19 10 19 6 0 10 9 10 20 0 11 5 20 10 20 6 0 10 9 10 20 0 11 5 20 10 20 6
0 10 9 10 20 0 11 5 20 10 20 6 0 10 8 10 18 0 9 9 28 20 42 11 14 20 33 20
43 0 9 5 17 10 17 6 0 10 9 10 19 0 11 5 23 10 26 6 3 10 17 10 31 0 13 5 24
10 24 6 0 10 14 10 30 0 17 5 30 10 30 6 0 10 14 10 30 0 17 5 30 10 30 6 0
10 14 10 30 0 17 5 30 10 30 6 0 10 18 10 40 0 22 5 40 10 40 6 0 10 18 10 40
0 22 5 40 10 40 6 0 10 13 10 29 0 17 5 33 10 36 5 3 10 26 10 51 0 24 5 44
10 44 6 0 10 21 10 46 0 27 6 51 15 60 8 9 15 11 15 5 0 -6 14 -11 30 -11 17
0 30 -4 30 -10 0 -5 14 -10 30 -10 17 0 30 -4 30 -10 0 -5 9 -10 20 -10 11 0
20 -4 20 -10 0 -5 14 -10 30 -10 17 0 30 -4 30 -10 0 -5 14 -10 30 -10 17 0
30 -4 30 -10 0 -5 14 -10 30 -10 17 0 30 -4 30 -10 0 -5 14 -10 30 -10 17 0
30 -4 30 -10 0 -5 14 -10 30 -10 17 0 30 -4 30 -10 0 -5 14 -10 30 -10 17 0
30 -4 30 -10 0 -5 14 -10 30 -10 17 0 30 -4 30 -10 0 -5 14 -10 30 -10 17 0
30 -4 30 -10 0 -5 9 -10 19 -10 11 0 23 -4 26 -10 3 -5 17 -10 31 -10 13 0 24
-4 24 -10 0 -5 14 -10 30 -10 17 0 30 -4 30 -10 0 -5 14 -10 30 -10 17 0 30
-4 30 -10 0 -5 14 -10 30 -10 17 0 30 -4 30 -10 0 -5 14 -10 30 -10 17 0 30
-4 30 -10 0 -5 14 -10 30 -10 17 0 30 -4 30 -10 0 -5 14 -10 30 -10 17 0 30
-4 30 -10 0 -5 14 -10 30 -10 17 0 30 -4 30 -10 0 -5 14 -10 30 -10 17 0 30
-4 30 -10 0 -5 14 -10 30 -10 17 0 30 -4 30 -10 0 -5 9 -10 20 -10 11 0 20 -4
20 -10 0 -5 14 -10 30 -10 17 0 30 -4 30 -10 0 -5 14 -10 30 -10 17 0 30 -4
30 -10 0 -5 14 -10 30 -10 17 0 30 -4 30 -10 0 -5 14 -10 30 -10 17 0 30 -4
30 -10 0 -5 14 -10 30 -10 17 0 30 -4 30 -10 0 -5 14 -10 30 -10 17 0 30 -4
30 -10 0 -5 14 -10 30 -10 17 0 30 -4 30 -10 0 -5 14 -10 30 -10 17 0 30 -4
30 -10 0 -5 14 -10 30 -10 17 0 30 -4 30 -10 0 -5 9 -10 20 -10 22 0 150 121
150 143 0 7 9 19 20 27 11 8 20 21 20 30 0 9 9 22 20 30 11 8 20 21 20 30 0 9
9 22 20 30 11 8 20 22 20 32 0 10 5 18 10 18 6 0 10 9 10 19 0 11 5 23 10 26
6 3 10 17 10 31 0 13 5 24 10 24 6 0 10 14 10 30 0 17 5 30 10 30 6 0 10 27
10 60 0 51 -4 65 -25 85 -13 14 -31 25 -39 25 -8 0 -18 5 -21 10 -3 6 -22 10
-41 10 -19 0 -34 5 -34 10 0 6 -13 10 -30 10 -16 0 -30 5 -30 10 0 6 -13 10
-30 10 -16 0 -30 5 -30 10 0 6 -13 10 -30 10 -16 0 -30 5 -30 10 0 6 -13 10
-30 10 -16 0 -30 5 -30 10 0 6 -13 10 -30 10 -16 0 -30 5 -30 10 0 6 -13 10
-30 10 -16 0 -30 5 -30 10 0 6 -13 10 -30 10 -16 0 -30 5 -30 10 0 6 -13 10
-29 10 -17 0 -33 4 -36 10 -3 5 -22 10 -41 10 -19 0 -34 5 -34 10 0 6 -13 10
-30 10 -16 0 -30 5 -30 10 0 6 -13 10 -30 10 -16 0 -30 5 -30 10 0 6 -13 10
-30 10 -16 0 -30 5 -30 10 0 6 -13 10 -30 10 -16 0 -30 5 -30 10 0 6 -13 10
-30 10 -16 0 -30 5 -30 10 0 6 -13 10 -30 10 -16 0 -30 5 -30 10 0 6 -13 10
-30 10 -16 0 -30 5 -30 10 0 6 -13 10 -29 10 -17 0 -33 5 -36 10 -3 6 -22 10
-41 10 -19 0 -34 5 -34 10 0 6 -13 10 -30 10 -16 0 -30 5 -30 10 0 6 -13 10
-30 10 -16 0 -30 5 -30 10 0 6 -13 10 -30 10 -16 0 -30 5 -30 10 0 6 -13 10
-30 10 -16 0 -30 5 -30 10 0 6 -13 10 -30 10 -16 0 -30 5 -30 10 0 6 -13 10
-30 10 -16 0 -30 5 -30 10 0 6 -13 10 -29 10 -17 0 -33 4 -36 10 -3 6 -22 10
-41 10 -19 0 -34 5 -34 10 0 6 -13 10 -30 10 -16 0 -30 5 -30 10 0 6 -13 10
-30 10 -16 0 -30 5 -30 10 0 6 -13 10 -30 10 -16 0 -30 5 -30 10 0 6 -13 10
-30 10 -16 0 -30 5 -30 10 0 6 -13 10 -30 10 -16 0 -30 5 -30 10 0 6 -12 10
-26 10 -50 0 -54 15 -54 194 0 99 -4 167 -10 171 -6 4 -10 62 -10 140 0 78 -4
136 -10 140 -5 3 -10 44 -10 90 0 46 -4 87 -10 90 -5 3 -10 35 -10 71 0 36 -4
64 -10 64 -5 0 -10 22 -10 49 0 28 -4 53 -10 56 -5 3 -10 26 -10 51 0 24 -4
44 -10 44 -5 0 -10 18 -10 40 0 22 -4 40 -10 40 -5 0 -10 13 -10 29 0 17 -4
33 -10 36 -5 3 -10 21 -10 40 0 19 -4 37 -10 40 -5 3 -10 22 -10 41 0 19 -4
34 -10 34 -5 0 -10 14 -10 30 0 17 -4 30 -10 30 -5 0 -10 14 -10 30 0 17 -4
30 -10 30 -5 0 -10 14 -10 30 0 17 -4 30 -10 30 -5 0 -10 9 -10 20 0 11 -4 28
-9 38 -5 9 -14 29 -20 45 -22 55 -35 77 -43 77 -4 0 -8 9 -8 20 0 11 -4 20
-10 20 -5 0 -10 9 -10 19 0 11 -4 23 -10 26 -5 3 -10 17 -10 31 0 13 -4 24
-10 24 -5 0 -10 9 -10 20 0 11 -4 20 -10 20 -5 0 -10 11 -10 24 0 14 -4 28
-10 31 -5 3 -10 15 -10 26 0 10 -4 19 -10 19 -5 0 -10 9 -10 20 0 11 -4 20
-10 20 -5 0 -10 9 -10 20 0 11 -3 20 -8 20 -4 0 -12 10 -17 23 -8 18 -6 26 12
45 12 12 27 22 33 22 15 0 100 87 100 103 0 7 9 19 20 27 11 8 20 22 20 32 0
10 5 18 10 18 6 0 10 9 10 20 0 11 5 20 10 20 6 0 10 9 10 20 0 11 5 20 10 20
6 0 10 14 10 30 0 17 5 30 10 30 6 0 10 14 10 30 0 17 5 30 10 30 6 0 10 14
10 30 0 17 5 30 10 30 6 0 10 23 10 50 0 28 5 50 10 50 6 0 10 27 10 60 0 33
4 60 10 60 6 0 10 37 10 90 0 53 4 90 10 90 6 0 10 11 10 25 0 14 -4 25 -10
25 -5 0 -10 15 -10 34 0 19 5 38 10 41 6 4 10 92 10 230 0 138 -4 226 -10 230
-6 4 -10 77 -10 186 0 113 -4 179 -10 179 -6 0 -10 37 -10 90 0 53 -4 90 -10
90 -6 0 -10 26 -10 59 0 33 -4 63 -10 66 -5 3 -10 28 -10 55 0 27 -4 52 -10
55 -5 3 -10 24 -10 46 0 21 -4 39 -10 39 -5 0 -10 14 -10 30 0 17 -4 30 -10
30 -5 0 -10 14 -10 30 0 17 -4 30 -10 30 -5 0 -10 14 -10 30 0 17 -4 30 -10
30 -5 0 -10 9 -10 20 0 11 -4 20 -10 20 -5 0 -10 9 -10 20 0 11 -4 20 -10 20
-5 0 -10 9 -10 20 0 11 -4 20 -10 20 -5 0 -10 9 -10 20 0 11 -4 20 -10 20 -5
0 -10 6 -10 14 0 8 -22 37 -50 65 -27 28 -50 58 -50 66 0 8 -8 15 -18 15 -10
0 -24 9 -32 20 -8 11 -22 20 -32 20 -10 0 -18 5 -18 10 0 6 -9 10 -20 10 -11
0 -20 5 -20 10 0 6 -9 10 -20 10 -11 0 -20 5 -20 10 0 6 -9 10 -20 10 -11 0
-20 5 -20 10 0 6 -9 10 -19 10 -11 0 -23 5 -26 10 -3 6 -17 10 -31 10 -13 0
-24 5 -24 10 0 6 -18 10 -40 10 -22 0 -40 5 -40 10 0 6 -22 10 -50 10 -27 0
-50 5 -50 10 0 6 -31 10 -74 10 -41 0 -78 5 -81 10 -4 6 -62 10 -140 10 -78 0
-136 -4 -140 -10 -3 -5 -46 -10 -96 -10 l-89 0 0 294 c0 186 4 297 10 301 6 4
10 175 10 480 0 305 -4 476 -10 480 -6 4 -10 83 -10 206 0 126 -4 199 -10 199
-6 0 -10 33 -10 80 0 47 -4 80 -10 80 -5 0 -10 18 -10 40 0 22 -4 40 -10 40
-5 0 -10 23 -10 50 0 28 -4 50 -10 50 -5 0 -10 18 -10 40 0 22 -4 40 -10 40
-5 0 -10 14 -10 30 0 17 -4 30 -10 30 -5 0 -10 18 -10 40 0 22 -4 40 -10 40
-5 0 -10 14 -10 30 0 17 -4 30 -10 30 -5 0 -10 14 -10 30 0 17 -4 30 -10 30
-5 0 -10 14 -10 30 0 17 -4 30 -10 30 -5 0 -10 14 -10 30 0 17 -4 30 -10 30
-5 0 -10 14 -10 30 0 17 -4 30 -10 30 -5 0 -10 9 -10 20 0 11 -4 20 -10 20 -5
0 -10 14 -10 30 0 17 -4 30 -10 30 -5 0 -10 9 -10 20 0 11 -4 20 -10 20 -5 0
-10 9 -10 20 0 11 -4 20 -10 20 -5 0 -10 9 -10 20 0 11 -4 20 -10 20 -5 0 -10
9 -10 20 0 11 -4 20 -10 20 -5 0 -10 14 -10 30 0 17 -4 30 -10 30 -5 0 -10 8
-10 18 0 10 -9 24 -20 32 -11 8 -20 22 -20 32 0 10 -4 18 -10 18 -5 0 -10 9
-10 20 0 11 -4 20 -10 20 -5 0 -10 9 -10 20 0 11 -4 20 -10 20 -5 0 -10 8 -10
18 0 10 -9 24 -20 32 -11 8 -20 21 -20 30 0 9 -9 22 -20 30 -11 8 -20 21 -20
30 0 9 -9 22 -20 30 -11 8 -20 21 -20 30 0 9 -9 22 -20 30 -11 8 -20 21 -20
28 0 8 -13 27 -30 42 -16 15 -30 33 -30 40 0 6 -23 33 -50 60 -28 27 -50 54
-50 59 0 15 -307 321 -321 321 -6 0 -28 18 -49 40 -21 22 -43 40 -48 40 -6 0
-33 23 -61 50 -28 28 -57 50 -64 50 -7 0 -19 9 -27 20 -8 11 -21 20 -30 20 -9
0 -22 9 -30 20 -8 11 -22 20 -32 20 -10 0 -18 5 -18 10 0 6 -9 10 -20 10 -11
0 -20 5 -20 10 0 6 -9 10 -20 10 -11 0 -20 5 -20 10 0 6 -9 10 -20 10 -11 0
-20 5 -20 10 0 6 -9 10 -20 10 -11 0 -20 5 -20 10 0 6 -9 10 -20 10 -11 0 -20
5 -20 10 0 6 -9 10 -19 10 -11 0 -23 5 -26 10 -3 6 -17 10 -31 10 -13 0 -24 5
-24 10 0 6 -9 10 -20 10 -11 0 -20 5 -20 10 0 6 -13 10 -30 10 -16 0 -30 5
-30 10 0 6 -9 10 -19 10 -11 0 -23 5 -26 10 -3 6 -17 10 -31 10 -13 0 -24 5
-24 10 0 6 -13 10 -30 10 -16 0 -30 5 -30 10 0 6 -13 10 -30 10 -16 0 -30 5
-30 10 0 6 -18 10 -40 10 -22 0 -40 5 -40 10 0 6 -13 10 -30 10 -16 0 -30 5
-30 10 0 6 -18 10 -40 10 -22 0 -40 5 -40 10 0 6 -13 10 -30 10 -16 0 -30 5
-30 10 0 6 -20 10 -44 10 -25 0 -48 5 -51 10 -3 6 -24 10 -46 10 -21 0 -39 5
-39 10 0 6 -20 10 -44 10 -25 0 -48 5 -51 10 -3 6 -26 10 -50 10 -24 0 -47 5
-50 10 -3 6 -28 10 -56 10 -27 0 -49 5 -49 10 0 6 -27 10 -60 10 -33 0 -60 4
-60 10 0 6 -27 10 -60 10 -33 0 -60 4 -60 10 0 6 -30 10 -70 10 -40 0 -70 4
-70 10 0 6 -33 10 -80 10 -47 0 -80 4 -80 10 0 6 -37 10 -90 10 -53 0 -90 4
-90 10 0 6 -43 10 -110 10 -67 0 -110 4 -110 10 0 6 -50 10 -130 10 -80 0
-130 4 -130 10 0 6 -45 10 -112 11 -62 0 -107 3 -100 6 6 2 12 13 12 24 0 10
5 19 10 19 6 0 10 9 10 20 0 11 5 20 10 20 6 0 10 8 10 18 0 10 9 24 20 32 11
8 20 22 20 32 0 10 5 18 10 18 6 0 10 9 10 20 0 11 5 20 10 20 6 0 10 8 10 18
0 10 9 24 20 32 11 8 20 21 20 30 0 9 9 22 20 30 11 8 20 22 20 32 0 10 5 18
10 18 6 0 10 7 10 16 0 9 14 29 30 44 17 15 30 34 30 42 0 7 9 20 20 28 11 8
20 20 20 26 0 6 18 30 40 53 22 22 40 46 40 52 0 6 23 32 50 59 28 27 50 54
50 60 0 6 23 33 50 60 44 43 50 54 50 89 l0 41 -55 0 c-30 0 -55 -4 -55 -10 0
-5 -22 -10 -50 -10 -27 0 -50 -4 -50 -10 0 -5 -18 -10 -40 -10 -22 0 -40 -4
-40 -10 0 -5 -22 -10 -50 -10 -27 0 -50 -4 -50 -10 0 -5 -22 -10 -50 -10 -27
0 -50 -4 -50 -10 0 -5 -22 -10 -50 -10 -27 0 -50 -4 -50 -10 0 -5 -22 -10 -50
-10 -27 0 -50 -4 -50 -10 0 -5 -22 -10 -50 -10 -27 0 -50 -4 -50 -10 0 -5 -22
-10 -50 -10 -27 0 -50 -4 -50 -10 0 -5 -22 -10 -50 -10 -27 0 -50 -4 -50 -10
0 -5 -22 -10 -50 -10 -27 0 -50 -4 -50 -10 0 -5 -22 -10 -50 -10 -27 0 -50 -4
-50 -10 0 -5 -22 -10 -50 -10 -27 0 -50 -4 -50 -10 0 -5 -22 -10 -50 -10 -27
0 -50 -4 -50 -10 0 -6 -27 -10 -60 -10 -33 0 -60 -4 -60 -10 0 -5 -22 -10 -50
-10 -27 0 -50 -4 -50 -10 0 -6 -27 -10 -60 -10 -33 0 -60 -4 -60 -10 0 -5 -22
-10 -50 -10 -27 0 -50 -4 -50 -10 0 -6 -27 -10 -60 -10 -33 0 -60 -4 -60 -10
0 -6 -27 -10 -60 -10 -33 0 -60 -4 -60 -10 0 -6 -27 -10 -60 -10 -33 0 -60 -4
-60 -10 0 -6 -27 -10 -60 -10 -33 0 -60 -4 -60 -10 0 -6 -27 -10 -60 -10 -33
0 -60 -4 -60 -10 0 -6 -30 -10 -70 -10 -40 0 -70 -4 -70 -10 0 -6 -28 -10 -64
-10 -36 0 -68 -4 -71 -10 -3 -5 -37 -10 -76 -10 -39 0 -69 -4 -69 -10 0 -6
-30 -10 -70 -10 -40 0 -70 -4 -70 -10 0 -6 -37 -10 -90 -10 -53 0 -90 -4 -90
-10 0 -6 -37 -10 -90 -10 -53 0 -90 -4 -90 -10 0 -6 -35 -10 -85 -10 l-85 0 0
45 c0 25 5 45 10 45 6 0 10 23 10 50 0 28 5 50 10 50 6 0 10 14 10 30 0 17 5
30 10 30 6 0 10 14 10 30 0 17 5 30 10 30 6 0 10 14 10 30 0 17 5 30 10 30 6
0 10 9 10 20 0 11 5 20 10 20 6 0 10 14 10 30 0 17 5 30 10 30 6 0 10 9 10 20
0 11 5 20 10 20 6 0 10 9 10 20 0 11 5 20 10 20 6 0 10 9 10 20 0 11 5 20 10
20 6 0 10 9 10 20 0 11 5 20 10 20 6 0 10 9 10 20 0 11 5 20 10 20 6 0 10 9
10 20 0 11 5 20 10 20 6 0 10 9 10 20 0 11 5 20 10 20 17 0 12 67 -6 74 -34
13 -74 5 -98 -19z m4819 -7754 c55 -5 137 -13 183 -17 45 -3 85 -11 88 -15 3
-5 25 -9 50 -9 24 0 44 -4 44 -10 0 -5 18 -10 40 -10 22 0 40 -4 40 -10 0 -5
18 -10 40 -10 22 0 40 -4 40 -10 0 -5 15 -10 34 -10 19 0 38 -4 41 -10 3 -5
19 -10 35 -10 16 0 32 -4 35 -10 3 -5 26 -10 51 -10 24 0 44 -4 44 -10 0 -5 9
-10 19 -10 11 0 23 -4 26 -10 3 -5 17 -10 30 -10 13 0 25 -3 27 -7 2 -5 26
-19 53 -32 28 -13 58 -27 67 -32 10 -5 27 -9 38 -9 11 0 20 -4 20 -10 0 -5 9
-10 20 -10 11 0 20 -4 20 -10 0 -5 9 -10 20 -10 11 0 20 -4 20 -10 0 -5 9 -10
20 -10 11 0 20 -4 20 -10 0 -5 9 -10 20 -10 11 0 20 -4 20 -10 0 -5 9 -10 19
-10 11 0 23 -4 26 -10 3 -5 17 -10 31 -10 13 0 24 -4 24 -10 0 -5 9 -10 20
-10 11 0 20 -4 20 -8 0 -5 12 -15 28 -23 15 -8 29 -16 32 -19 10 -10 65 -41
83 -47 9 -3 17 -9 17 -14 0 -5 6 -9 13 -9 6 0 28 -14 47 -30 19 -16 40 -30 45
-30 6 0 17 -9 25 -20 8 -11 21 -20 30 -20 9 0 22 -9 30 -20 8 -11 21 -20 28
-20 8 0 26 -12 40 -28 15 -15 39 -33 55 -41 15 -8 27 -18 27 -23 0 -4 8 -8 18
-8 9 0 23 -12 30 -27 7 -16 33 -44 59 -63 26 -19 74 -61 106 -92 32 -32 63
-58 69 -58 12 0 38 -26 38 -38 0 -5 28 -39 63 -76 34 -36 81 -88 105 -116 24
-27 50 -50 58 -50 8 0 14 -9 14 -20 0 -11 5 -20 10 -20 6 0 10 -7 10 -16 0 -9
14 -29 30 -44 17 -15 30 -34 30 -42 0 -7 9 -20 20 -28 11 -8 20 -20 20 -28 0
-7 9 -22 20 -34 11 -12 20 -28 20 -35 0 -7 4 -13 8 -13 4 0 16 -13 25 -30 10
-16 23 -35 30 -42 7 -7 21 -30 30 -51 10 -20 29 -48 42 -62 14 -13 25 -31 25
-40 0 -8 5 -15 10 -15 6 0 10 -9 10 -20 0 -11 5 -20 10 -20 6 0 10 -9 10 -20
0 -11 5 -20 10 -20 6 0 10 -6 10 -14 0 -8 9 -33 20 -55 11 -23 29 -59 40 -82
11 -22 20 -47 20 -55 0 -8 5 -14 10 -14 6 0 10 -9 10 -20 0 -11 5 -20 10 -20
6 0 10 -11 10 -25 0 -14 4 -33 9 -43 8 -16 15 -31 43 -99 7 -18 16 -33 20 -33
5 0 8 -9 8 -20 0 -11 5 -20 10 -20 6 0 10 -13 10 -30 0 -16 5 -30 10 -30 6 0
10 -22 10 -50 0 -27 5 -50 10 -50 6 0 10 -18 10 -40 0 -22 5 -40 10 -40 6 0
10 -15 10 -34 0 -19 5 -38 10 -41 6 -3 10 -19 10 -36 0 -16 5 -29 10 -29 6 0
10 -22 10 -50 0 -27 5 -50 10 -50 6 0 10 -22 10 -49 0 -28 4 -52 9 -55 33 -21
33 -1086 0 -1086 -5 0 -9 -22 -9 -50 0 -27 -4 -50 -10 -50 -5 0 -10 -22 -10
-50 0 -27 -4 -50 -10 -50 -5 0 -10 -18 -10 -40 0 -22 -4 -40 -10 -40 -5 0 -10
-18 -10 -40 0 -22 -4 -40 -10 -40 -5 0 -10 -15 -10 -34 0 -19 -4 -38 -10 -41
-5 -3 -10 -28 -10 -56 0 -27 -4 -49 -10 -49 -5 0 -10 -13 -10 -30 0 -16 -4
-30 -10 -30 -5 0 -10 -6 -10 -14 0 -11 -29 -76 -71 -158 -5 -10 -9 -29 -9 -43
0 -14 -4 -25 -10 -25 -5 0 -10 -9 -10 -20 0 -11 -4 -20 -10 -20 -5 0 -10 -9
-10 -20 0 -11 -4 -20 -10 -20 -5 0 -10 -9 -10 -20 0 -11 -4 -20 -10 -20 -5 0
-10 -9 -10 -20 0 -11 -4 -20 -10 -20 -5 0 -10 -9 -10 -20 0 -11 -4 -20 -10
-20 -5 0 -10 -13 -10 -30 0 -16 -4 -30 -10 -30 -5 0 -10 -7 -10 -15 0 -9 -9
-25 -20 -37 -11 -12 -20 -28 -20 -35 0 -7 -4 -13 -10 -13 -5 0 -10 -7 -10 -15
0 -9 -9 -25 -20 -37 -11 -12 -20 -28 -20 -35 0 -7 -4 -13 -10 -13 -5 0 -10 -9
-10 -20 0 -11 -3 -20 -8 -20 -4 0 -18 -18 -32 -40 -14 -22 -28 -40 -32 -40 -5
0 -8 -8 -8 -18 0 -10 -9 -24 -20 -32 -11 -8 -20 -20 -20 -27 0 -7 -13 -27 -30
-45 -16 -17 -30 -35 -30 -40 0 -4 -13 -22 -30 -40 -16 -17 -30 -39 -30 -50 0
-10 -8 -22 -17 -25 -21 -8 -103 -92 -103 -105 0 -5 -26 -34 -58 -66 -32 -31
-67 -69 -76 -84 -10 -16 -23 -28 -28 -28 -5 0 -35 -26 -66 -58 -31 -31 -74
-70 -96 -86 -21 -16 -58 -48 -82 -72 -24 -24 -49 -44 -55 -44 -6 0 -24 -13
-39 -30 -15 -16 -34 -30 -40 -30 -7 0 -20 -8 -29 -18 -9 -9 -28 -23 -43 -31
-16 -8 -28 -18 -28 -23 0 -4 -8 -8 -18 -8 -10 0 -24 -9 -32 -20 -8 -11 -19
-20 -25 -20 -5 0 -23 -12 -40 -26 -16 -14 -45 -33 -65 -42 -19 -9 -42 -24 -51
-34 -9 -10 -24 -18 -33 -18 -9 0 -16 -4 -16 -10 0 -5 -6 -10 -13 -10 -7 0 -23
-9 -35 -20 -12 -11 -33 -20 -47 -20 -14 0 -25 -4 -25 -10 0 -5 -9 -10 -20 -10
-11 0 -20 -4 -20 -10 0 -5 -9 -10 -20 -10 -11 0 -20 -4 -20 -10 0 -5 -9 -10
-20 -10 -11 0 -20 -4 -20 -10 0 -5 -9 -10 -20 -10 -11 0 -20 -4 -20 -10 0 -5
-9 -10 -20 -10 -11 0 -20 -4 -20 -10 0 -5 -13 -10 -29 -10 -17 0 -33 -4 -36
-10 -3 -5 -17 -10 -31 -10 -13 0 -24 -4 -24 -10 0 -5 -9 -10 -20 -10 -19 0
-85 -32 -105 -51 -5 -5 -19 -9 -32 -9 -13 0 -23 -4 -23 -10 0 -5 -20 -10 -44
-10 -25 0 -48 -4 -51 -10 -3 -5 -19 -10 -35 -10 -16 0 -32 -4 -35 -10 -3 -5
-19 -10 -35 -10 -16 0 -32 -4 -35 -10 -3 -5 -19 -10 -35 -10 -16 0 -32 -5 -35
-10 -3 -6 -22 -10 -41 -10 -19 0 -34 -4 -34 -10 0 -5 -19 -10 -43 -10 -24 0
-47 -4 -52 -9 -6 -5 -48 -12 -95 -15 -330 -24 -415 -28 -575 -28 -99 0 -234 5
-300 11 -66 6 -156 13 -200 17 -44 3 -84 10 -90 15 -5 5 -28 9 -52 9 -24 0
-43 5 -43 10 0 6 -18 10 -40 10 -22 0 -40 5 -40 10 0 6 -18 10 -40 10 -22 0
-40 5 -40 10 0 6 -15 10 -34 10 -19 0 -38 5 -41 10 -3 6 -19 10 -35 10 -16 0
-32 5 -35 10 -3 5 -26 10 -50 10 -24 0 -47 5 -50 10 -3 6 -17 10 -31 10 -13 0
-24 4 -24 8 0 9 -6 12 -95 52 -27 12 -58 26 -67 31 -10 5 -24 9 -32 9 -12 0
-53 18 -121 53 -11 5 -28 14 -37 19 -10 4 -27 13 -38 18 -11 5 -27 10 -35 10
-8 0 -15 5 -15 10 0 6 -9 10 -20 10 -11 0 -20 5 -20 10 0 6 -9 10 -20 10 -11
0 -20 5 -20 10 0 6 -9 10 -20 10 -11 0 -20 4 -20 8 0 5 -12 15 -27 23 -16 8
-37 22 -47 32 -11 9 -28 17 -39 17 -10 0 -32 14 -47 30 -15 17 -34 30 -42 30
-7 0 -20 9 -28 20 -8 11 -21 20 -30 20 -9 0 -22 9 -30 20 -8 11 -21 20 -30 20
-9 0 -22 9 -30 20 -8 11 -19 20 -25 20 -6 0 -31 18 -55 40 -24 22 -48 40 -52
40 -4 0 -34 27 -65 60 -32 33 -63 60 -69 60 -13 0 -284 266 -284 279 0 12 -83
96 -102 104 -10 3 -18 15 -18 25 0 11 -13 33 -30 50 -16 18 -30 36 -30 40 0 5
-13 23 -30 40 -16 18 -30 39 -30 47 0 8 -4 15 -10 15 -5 0 -10 6 -10 13 0 6
-14 28 -30 47 -16 19 -30 39 -30 44 0 5 -8 16 -17 25 -20 18 -52 67 -60 94 -3
9 -9 17 -14 17 -5 0 -9 6 -9 13 0 7 -9 23 -20 35 -11 12 -20 28 -20 37 0 8 -3
15 -7 15 -9 0 -33 49 -33 67 0 7 -4 13 -10 13 -5 0 -10 9 -10 20 0 11 -4 20
-10 20 -5 0 -10 9 -10 20 0 11 -4 20 -10 20 -5 0 -10 9 -10 20 0 11 -4 20 -10
20 -5 0 -10 9 -10 20 0 11 -4 20 -10 20 -5 0 -10 11 -10 24 0 14 -4 28 -10 31
-5 3 -10 15 -10 26 0 10 -4 27 -9 37 -5 9 -19 40 -32 67 -13 28 -27 52 -31 53
-5 2 -8 14 -8 27 0 13 -4 27 -10 30 -5 3 -10 15 -10 26 0 10 -4 19 -10 19 -5
0 -10 20 -10 44 0 25 -4 48 -10 51 -5 3 -10 21 -10 40 0 19 -4 37 -10 40 -5 3
-10 19 -10 36 0 16 -4 29 -10 29 -5 0 -10 15 -10 34 0 19 -4 38 -10 41 -5 3
-10 19 -10 36 0 16 -4 29 -10 29 -5 0 -10 23 -10 50 0 28 -4 50 -9 50 -5 0
-12 42 -15 93 -3 50 -11 160 -17 242 -14 184 -14 468 0 635 6 69 13 159 17
200 3 41 10 79 15 84 5 6 9 29 9 53 0 24 5 43 10 43 6 0 10 18 10 39 0 22 5
43 10 46 6 3 10 22 10 41 0 19 5 34 10 34 6 0 10 18 10 40 0 22 5 40 10 40 6
0 10 15 10 34 0 19 5 38 10 41 6 3 10 28 10 56 0 27 5 49 10 49 6 0 10 9 10
20 0 11 5 20 10 20 6 0 10 9 10 21 0 11 8 33 18 47 10 15 24 41 31 57 7 17 17
38 22 47 5 10 9 27 9 37 0 11 5 23 10 26 6 3 10 15 10 26 0 10 5 19 10 19 6 0
10 9 10 20 0 11 5 20 10 20 6 0 10 9 10 20 0 11 5 20 10 20 6 0 10 9 10 20 0
11 5 20 10 20 6 0 10 9 10 20 0 11 5 20 10 20 6 0 10 6 10 13 0 18 24 67 33
67 4 0 7 9 7 20 0 11 4 20 9 20 5 0 11 8 14 18 8 23 40 76 50 80 4 2 7 10 7
18 0 8 14 28 30 46 17 17 30 37 30 44 0 8 5 14 10 14 6 0 10 6 10 13 0 6 14
28 30 47 16 19 30 41 30 48 0 6 4 12 8 12 5 0 15 12 23 28 8 15 25 38 39 52
14 14 34 42 43 63 10 20 23 37 28 37 12 0 99 89 99 101 0 11 256 267 300 300
54 41 76 62 83 82 3 9 13 17 22 17 8 0 15 5 15 10 0 6 6 10 14 10 7 0 26 12
42 28 16 15 42 33 57 41 15 8 27 18 27 23 0 4 6 8 13 8 7 0 22 8 33 18 10 9
31 23 47 31 15 8 27 18 27 23 0 4 6 8 14 8 7 0 27 14 44 30 18 17 39 30 47 30
8 0 15 4 15 9 0 5 8 11 18 14 26 8 75 40 93 60 9 9 24 17 33 17 9 0 16 5 16
10 0 6 14 10 30 10 17 0 30 5 30 10 0 6 9 10 20 10 11 0 20 5 20 10 0 6 9 10
20 10 11 0 20 5 20 10 0 6 9 10 20 10 11 0 20 5 20 10 0 6 9 10 20 10 11 0 20
5 20 10 0 6 9 10 20 10 11 0 20 5 20 10 0 6 11 10 25 10 14 0 33 4 43 9 9 5
31 15 47 22 17 7 42 21 57 31 14 10 36 18 47 18 12 0 21 5 21 10 0 6 9 10 19
10 11 0 23 5 26 10 3 6 26 10 50 10 24 0 47 5 50 10 3 6 22 10 41 10 19 0 34
5 34 10 0 6 14 10 30 10 17 0 30 5 30 10 0 6 18 10 40 10 22 0 40 5 40 10 0 6
15 10 34 10 19 0 38 5 41 10 3 6 24 10 46 10 21 0 39 4 39 9 0 9 51 14 302 29
76 4 141 11 145 15 9 10 451 1 578 -12z"/>
<path d="M11590 9520 c0 -5 -13 -10 -30 -10 -16 0 -30 -4 -30 -10 0 -5 -9 -10
-20 -10 -11 0 -20 -4 -20 -10 0 -5 -15 -10 -34 -10 -19 0 -38 -4 -41 -10 -3
-5 -15 -10 -26 -10 -10 0 -19 -4 -19 -10 0 -5 -9 -10 -20 -10 -11 0 -20 -4
-20 -10 0 -5 -10 -10 -23 -10 -13 0 -33 -9 -45 -20 -12 -11 -28 -20 -36 -20
-8 0 -18 -4 -21 -10 -3 -5 -17 -10 -31 -10 -13 0 -24 -4 -24 -10 0 -5 -9 -10
-20 -10 -11 0 -20 -4 -20 -10 0 -5 -6 -10 -13 -10 -18 0 -67 -24 -67 -32 0 -5
-9 -8 -20 -8 -11 0 -20 -4 -20 -10 0 -5 -8 -10 -18 -10 -10 0 -24 -9 -32 -20
-8 -11 -22 -20 -32 -20 -10 0 -18 -4 -18 -10 0 -5 -6 -10 -14 -10 -7 0 -27
-13 -44 -30 -18 -16 -38 -30 -45 -30 -7 0 -19 -9 -27 -20 -8 -11 -19 -20 -25
-20 -6 0 -20 -8 -31 -17 -10 -10 -31 -24 -46 -32 -16 -8 -28 -18 -28 -23 0 -4
-6 -8 -14 -8 -7 0 -32 -18 -54 -39 -22 -22 -52 -47 -66 -56 -14 -10 -26 -22
-26 -27 0 -12 -26 -38 -37 -38 -13 0 -183 -166 -183 -179 0 -6 -35 -45 -78
-88 -42 -43 -88 -94 -102 -113 -13 -19 -32 -44 -42 -54 -10 -11 -18 -25 -18
-31 0 -6 -9 -17 -20 -25 -11 -8 -20 -21 -20 -30 0 -9 -9 -22 -20 -30 -11 -8
-20 -20 -20 -28 0 -7 -11 -24 -25 -37 -13 -14 -32 -42 -42 -62 -9 -21 -23 -44
-31 -52 -7 -7 -21 -31 -30 -52 -9 -22 -20 -39 -24 -39 -5 0 -8 -9 -8 -20 0
-11 -4 -20 -10 -20 -5 0 -10 -6 -10 -14 0 -8 -13 -40 -30 -71 -16 -31 -30 -66
-30 -76 0 -10 -4 -19 -10 -19 -5 0 -10 -9 -10 -20 0 -11 -4 -20 -10 -20 -5 0
-10 -9 -10 -20 0 -11 -4 -20 -10 -20 -5 0 -10 -9 -10 -20 0 -11 -4 -20 -10
-20 -5 0 -10 -9 -10 -19 0 -11 -4 -23 -10 -26 -5 -3 -10 -22 -10 -41 0 -19 -4
-34 -10 -34 -5 0 -10 -9 -10 -19 0 -11 -4 -23 -10 -26 -5 -3 -10 -17 -10 -30
0 -13 -4 -27 -10 -30 -5 -3 -10 -26 -10 -51 0 -24 -4 -44 -10 -44 -5 0 -10
-13 -10 -29 0 -17 -4 -33 -10 -36 -5 -3 -10 -21 -10 -40 0 -19 -4 -37 -10 -40
-5 -3 -10 -35 -10 -70 0 -35 -4 -67 -10 -70 -5 -3 -10 -26 -10 -50 0 -24 -4
-47 -10 -50 -6 -4 -10 -165 -10 -450 0 -285 4 -446 10 -450 6 -3 10 -28 10
-56 0 -27 5 -49 10 -49 6 0 10 -28 10 -64 0 -36 5 -68 10 -71 6 -3 10 -19 10
-36 0 -16 5 -39 12 -52 25 -50 28 -58 28 -97 0 -22 5 -40 10 -40 6 0 10 -13
10 -30 0 -16 5 -30 10 -30 6 0 10 -11 10 -24 0 -14 5 -28 10 -31 6 -3 10 -17
10 -30 0 -20 11 -48 51 -127 5 -10 9 -25 9 -33 0 -8 5 -15 10 -15 6 0 10 -9
10 -20 0 -11 5 -20 10 -20 6 0 10 -9 10 -20 0 -19 32 -85 51 -105 5 -5 9 -19
9 -32 0 -13 5 -23 10 -23 6 0 10 -7 10 -15 0 -9 9 -25 20 -37 11 -12 20 -29
20 -38 0 -10 14 -31 30 -48 17 -18 30 -39 30 -47 0 -8 5 -15 10 -15 6 0 10 -6
10 -13 0 -8 9 -22 20 -32 11 -10 20 -25 20 -34 0 -9 9 -23 20 -31 11 -8 20
-20 20 -26 0 -6 14 -25 30 -42 17 -18 30 -36 30 -42 0 -6 14 -24 30 -42 17
-17 30 -35 30 -40 0 -5 36 -45 80 -89 44 -44 80 -84 80 -89 0 -12 128 -140
140 -140 5 0 32 -23 59 -50 28 -27 55 -50 61 -50 6 0 14 -8 17 -17 9 -23 29
-43 42 -43 6 0 24 -13 39 -30 16 -16 36 -30 43 -30 8 0 21 -9 29 -20 8 -11 19
-20 25 -20 5 0 26 -14 45 -30 31 -27 43 -30 105 -31 128 -3 240 3 243 12 2 5
39 9 83 9 46 0 79 4 79 10 0 6 27 10 60 10 33 0 60 4 60 10 0 6 23 10 50 10
28 0 50 5 50 10 0 6 23 10 50 10 28 0 50 5 50 10 0 6 18 10 40 10 22 0 40 5
40 10 0 6 15 10 34 10 19 0 38 5 41 10 3 6 19 10 36 10 16 0 29 5 29 10 0 6
14 10 30 10 17 0 30 5 30 10 0 6 14 10 30 10 17 0 30 5 30 10 0 6 14 10 30 10
17 0 30 5 30 10 0 6 14 10 30 10 17 0 30 5 30 10 0 6 14 10 30 10 17 0 30 5
30 10 0 6 9 10 20 10 11 0 20 5 20 10 0 6 14 10 30 10 17 0 30 5 30 10 0 6 9
10 20 10 11 0 20 5 20 10 0 6 9 10 20 10 11 0 20 5 20 10 0 6 9 10 20 10 11 0
20 5 20 10 0 6 14 10 30 10 17 0 30 5 30 10 0 6 9 10 20 10 11 0 20 4 20 9 0
5 8 11 18 14 23 8 76 40 80 50 2 4 12 7 23 7 10 0 19 5 19 10 0 6 9 10 20 10
11 0 20 5 20 10 0 6 9 10 20 10 11 0 20 5 20 10 0 6 6 10 13 10 7 0 23 9 35
20 12 11 27 20 34 20 8 0 20 9 28 20 8 11 22 20 32 20 10 0 18 5 18 10 0 6 7
10 15 10 8 0 29 14 47 30 17 17 36 30 42 30 6 0 18 9 26 20 8 11 21 20 30 20
9 0 22 9 30 20 8 11 21 20 28 20 7 0 31 18 52 40 21 22 44 40 50 40 6 0 29 18
50 40 21 22 44 40 50 40 6 0 38 27 70 60 32 33 64 60 70 60 13 0 380 366 380
380 0 5 32 42 70 81 39 39 70 75 70 81 0 5 18 27 40 48 22 21 40 43 40 49 0 6
18 30 40 52 22 23 40 46 40 51 0 6 14 23 30 38 17 15 30 34 30 42 0 7 9 20 20
28 11 8 20 21 20 28 0 8 14 27 30 42 17 15 30 34 30 42 0 7 9 20 20 28 11 8
20 21 20 30 0 9 9 22 20 30 11 8 20 21 20 30 0 9 9 22 20 30 11 8 20 21 20 30
0 9 9 22 20 30 11 8 20 21 20 30 0 9 9 22 20 30 11 8 20 21 20 30 0 9 9 22 20
30 11 8 20 22 20 32 0 10 5 18 10 18 6 0 10 8 10 18 0 10 9 24 20 32 11 8 20
22 20 32 0 10 5 18 10 18 6 0 10 8 10 18 0 10 9 24 20 32 11 8 20 22 20 32 0
10 5 18 10 18 6 0 10 23 10 50 0 28 5 50 10 50 6 0 10 23 10 50 0 28 5 50 10
50 6 0 10 23 10 50 0 28 5 50 10 50 6 0 10 23 10 50 0 28 5 50 10 50 6 0 10
23 10 50 0 28 5 50 10 50 6 0 10 27 10 60 0 33 4 60 10 60 6 0 10 23 10 50 0
28 5 50 10 50 6 0 10 27 10 60 0 33 4 60 10 60 6 0 10 27 10 60 0 33 4 60 10
60 6 0 10 30 10 70 0 40 4 70 10 70 6 0 10 31 10 74 0 41 5 78 10 81 6 3 10
46 10 96 0 53 4 89 10 89 6 0 10 114 10 321 l0 321 -30 28 c-16 15 -30 33 -30
39 0 15 -226 241 -241 241 -6 0 -24 14 -39 30 -15 17 -34 30 -42 30 -7 0 -20
9 -28 20 -8 11 -21 20 -30 20 -9 0 -22 9 -30 20 -8 11 -21 20 -30 20 -9 0 -22
9 -30 20 -8 11 -21 20 -30 20 -9 0 -22 9 -30 20 -8 11 -20 20 -28 20 -7 0 -22
9 -34 20 -30 28 -98 28 -98 1 0 -11 -6 -21 -12 -24 -22 -7 26 -87 52 -87 6 0
29 -18 50 -40 21 -22 44 -40 50 -40 6 0 29 -18 50 -40 21 -22 44 -40 50 -40 6
0 42 -31 80 -70 38 -38 76 -70 85 -70 9 0 15 -9 15 -26 0 -29 21 -54 44 -54 9
0 16 -7 16 -16 0 -8 18 -33 40 -54 22 -21 40 -46 40 -54 0 -9 5 -16 10 -16 6
0 10 -13 10 -30 0 -16 5 -30 10 -30 6 0 10 -18 10 -40 0 -22 5 -40 10 -40 6 0
10 -72 10 -195 0 -123 -4 -195 -10 -195 -5 0 -10 -9 -10 -20 0 -11 -4 -20 -10
-20 -5 0 -10 -9 -10 -20 0 -12 -7 -20 -16 -20 -9 0 -29 -13 -44 -30 -15 -16
-34 -30 -42 -30 -7 0 -20 -9 -28 -20 -8 -11 -22 -20 -32 -20 -10 0 -18 -4 -18
-10 0 -5 -9 -10 -20 -10 -11 0 -20 -4 -20 -10 0 -5 -9 -10 -20 -10 -11 0 -20
-4 -20 -10 0 -5 -13 -10 -30 -10 -16 0 -30 -4 -30 -10 0 -5 -9 -10 -20 -10
-11 0 -20 -4 -20 -10 0 -5 -18 -10 -40 -10 -22 0 -40 -4 -40 -10 0 -5 -22 -10
-50 -10 -27 0 -50 -4 -50 -10 0 -6 -49 -10 -126 -10 -137 0 -154 -6 -154 -55
0 -18 15 -41 50 -75 67 -65 66 -86 -5 -156 -45 -45 -61 -54 -90 -54 -19 0 -35
-4 -35 -10 0 -6 -115 -10 -325 -10 -210 0 -325 4 -325 10 0 6 -27 10 -60 10
-53 0 -60 2 -60 20 0 11 -4 20 -10 20 -5 0 -10 14 -10 30 0 17 -4 30 -10 30
-5 0 -10 14 -10 30 0 17 -4 30 -10 30 -5 0 -10 14 -10 30 0 17 -4 30 -10 30
-5 0 -10 9 -10 20 0 11 -4 20 -10 20 -5 0 -10 9 -10 20 0 11 -4 20 -10 20 -5
0 -10 14 -10 30 0 17 -4 30 -10 30 -5 0 -10 8 -10 18 0 10 -9 24 -20 32 -11 8
-20 20 -20 28 0 17 -25 42 -42 42 -8 0 -20 9 -28 20 -8 12 -26 20 -42 20 -15
0 -28 5 -28 10 0 6 -20 10 -45 10 -25 0 -45 -4 -45 -10 0 -5 -18 -10 -40 -10
-22 0 -40 -4 -40 -10 0 -5 -9 -10 -20 -10 -11 0 -20 -4 -20 -10 0 -5 -7 -10
-16 -10 -9 0 -18 -9 -21 -20 -3 -11 -9 -20 -14 -20 -5 0 -9 -7 -9 -15 0 -9 -9
-25 -20 -37 -11 -12 -20 -28 -20 -35 0 -7 -4 -13 -10 -13 -5 0 -10 -9 -10 -20
0 -11 -4 -20 -10 -20 -5 0 -10 -9 -10 -20 0 -11 -4 -20 -10 -20 -5 0 -10 -9
-10 -20 0 -11 -4 -20 -10 -20 -5 0 -10 -9 -10 -20 0 -11 -4 -20 -10 -20 -5 0
-10 -9 -10 -20 0 -11 -4 -20 -10 -20 -5 0 -10 -9 -10 -20 0 -11 -4 -20 -10
-20 -5 0 -10 -9 -10 -20 0 -11 -4 -20 -10 -20 -5 0 -10 -9 -10 -20 0 -11 -4
-20 -10 -20 -5 0 -10 -9 -10 -20 0 -11 -4 -20 -10 -20 -5 0 -10 -13 -10 -30 0
-16 -4 -30 -10 -30 -5 0 -10 -9 -10 -20 0 -11 -4 -20 -10 -20 -5 0 -10 -9 -10
-20 0 -11 -4 -20 -10 -20 -5 0 -10 -9 -10 -20 0 -11 -4 -20 -10 -20 -5 0 -10
-7 -10 -16 0 -9 -13 -29 -30 -44 -16 -15 -30 -33 -30 -40 0 -16 -25 -40 -42
-40 -8 0 -20 -9 -28 -20 -12 -16 -26 -20 -77 -20 -35 0 -63 4 -63 10 0 6 -9
10 -20 10 -11 0 -20 5 -20 10 0 6 -9 10 -20 10 -11 0 -20 5 -20 10 0 6 -9 10
-20 10 -11 0 -20 4 -20 8 0 5 -12 15 -27 23 -16 8 -35 22 -44 31 -9 10 -22 18
-28 18 -15 0 -141 126 -141 141 0 6 -8 19 -18 28 -9 9 -23 28 -31 44 -8 15
-18 27 -23 27 -4 0 -8 9 -8 20 0 11 -4 20 -10 20 -5 0 -10 9 -10 20 0 11 -4
20 -10 20 -5 0 -10 14 -10 30 0 17 -4 30 -10 30 -5 0 -10 14 -10 30 0 17 -4
30 -10 30 -5 0 -10 24 -10 54 0 30 -4 58 -10 61 -5 3 -10 22 -10 41 0 19 5 34
10 34 6 0 10 23 10 50 0 28 5 50 10 50 6 0 10 9 10 20 0 11 5 20 10 20 6 0 10
6 10 14 0 7 18 32 40 55 22 22 40 46 40 51 0 14 267 280 281 280 6 0 24 14 39
30 15 17 34 30 42 30 7 0 20 9 28 20 8 11 22 20 32 20 14 0 18 8 18 40 0 22 5
40 10 40 6 0 10 27 10 60 0 33 4 60 10 60 6 0 10 25 10 55 0 30 -4 55 -10 55
-6 0 -10 27 -10 60 0 33 -4 60 -10 60 -5 0 -10 14 -10 30 0 17 -4 30 -10 30
-5 0 -10 9 -10 20 0 11 -4 20 -10 20 -5 0 -10 9 -10 20 0 11 -4 20 -10 20 -5
0 -10 23 -10 50 0 28 -4 50 -10 50 -6 0 -10 38 -10 94 0 53 4 98 10 101 6 3
10 44 10 91 0 46 4 84 9 84 6 0 11 17 13 38 3 34 6 37 36 40 35 4 52 26 33 45
-8 8 -14 8 -23 -1 -15 -15 -54 -16 -63 -2 -3 6 -48 10 -101 10 -56 0 -94 -4
-94 -10z m1531 -3220 c5 0 9 -13 9 -30 0 -16 5 -30 10 -30 6 0 10 -27 10 -60
0 -33 4 -60 10 -60 6 0 10 -11 10 -25 0 -14 -4 -25 -10 -25 -5 0 -10 -22 -10
-50 0 -27 -4 -50 -10 -50 -5 0 -10 -8 -10 -18 0 -10 -9 -24 -20 -32 -11 -8
-20 -20 -20 -28 0 -16 -45 -62 -60 -62 -25 0 -60 -49 -60 -85 0 -19 -4 -35
-10 -35 -5 0 -10 -18 -10 -40 0 -22 -4 -40 -10 -40 -5 0 -10 -13 -10 -30 0
-16 -4 -30 -10 -30 -5 0 -10 -13 -10 -30 0 -16 -4 -30 -10 -30 -5 0 -10 -9
-10 -20 0 -11 -4 -20 -10 -20 -5 0 -10 -9 -10 -20 0 -11 -4 -20 -10 -20 -5 0
-10 -9 -10 -20 0 -11 -4 -20 -10 -20 -5 0 -10 -9 -10 -20 0 -11 -4 -20 -10
-20 -5 0 -10 -7 -10 -16 0 -9 -13 -29 -30 -44 -16 -15 -30 -33 -30 -39 0 -16
-87 -101 -103 -101 -7 0 -19 -9 -27 -20 -8 -11 -21 -20 -30 -20 -9 0 -22 -9
-30 -20 -8 -11 -22 -20 -32 -20 -9 0 -20 -4 -23 -10 -3 -5 -17 -10 -31 -10
-13 0 -24 -4 -24 -10 0 -5 -13 -10 -30 -10 -16 0 -30 -4 -30 -10 0 -6 -27 -10
-60 -10 -33 0 -60 -4 -60 -10 0 -6 -45 -10 -115 -10 -70 0 -115 4 -115 10 0 6
-9 10 -20 10 -11 0 -20 5 -20 10 0 6 -6 10 -14 10 -17 0 -206 184 -206 200 0
23 -89 100 -115 100 -33 0 -55 -21 -55 -54 0 -14 -4 -26 -10 -26 -5 0 -10 -7
-10 -15 0 -20 -45 -65 -65 -65 -8 0 -15 -4 -15 -10 0 -5 -9 -10 -20 -10 -11 0
-20 -4 -20 -10 0 -6 -38 -10 -95 -10 l-95 0 0 126 0 125 -60 59 c-33 32 -60
66 -60 74 0 9 -4 16 -10 16 -5 0 -10 14 -10 30 0 17 -4 30 -10 30 -15 0 -12
39 4 56 8 8 26 14 40 14 14 0 26 5 26 10 0 6 18 10 40 10 22 0 40 5 40 10 0 6
35 10 85 10 50 0 85 -4 85 -10 0 -5 23 -10 50 -10 28 0 50 -4 50 -10 0 -15 39
-12 56 4 9 9 14 35 14 70 0 31 5 56 10 56 6 0 10 15 10 34 0 19 5 38 10 41 6
3 10 15 10 26 0 10 5 19 10 19 6 0 10 8 10 18 0 10 9 24 20 32 11 8 20 20 20
27 0 17 146 163 163 163 7 0 19 9 27 20 8 11 21 20 30 20 9 0 22 9 30 20 8 11
22 20 32 20 10 0 18 5 18 10 0 6 9 10 20 10 11 0 20 5 20 10 0 6 27 10 60 10
33 0 60 4 60 10 0 6 33 10 80 10 47 0 80 4 80 10 0 6 92 10 255 10 163 0 255
-4 255 -10 0 -6 30 -10 70 -10 40 0 70 -4 70 -10 0 -5 16 -10 35 -10 19 0 35
5 35 10 0 6 9 10 20 10 14 0 20 7 21 23 l2 22 4 -22 c2 -13 9 -23 14 -23z"/>
</g>
</svg>
